0
SECTION
2
HEADER
9
$INSUNITS
70
4
9
$ACADVER
1
AC1014
9
$HANDSEED
5
FFFF
0
ENDSEC
0
SECTION
2
TABLES
0
TABLE
2
VPORT
5
8
100
AcDbSymbolTable
0
ENDTAB
0
TABLE
2
LTYPE
5
5
100
AcDbSymbolTable
70
2
0
LTYPE
5
14
100
AcDbSymbolTableRecord
100
AcDbLinetypeTableRecord
2
BYBLOCK
70
0
0
LTYPE
5
15
100
AcDbSymbolTableRecord
100
AcDbLinetypeTableRecord
2
BYLAYER
70
0
0
ENDTAB
0
TABLE
2
LAYER
5
2
100
AcDbSymbolTable
70
3
0
LAYER
5
50
100
AcDbSymbolTableRecord
100
AcDbLayerTableRecord
2
0
70
0
6
CONTINUOUS
0
LAYER
5
51
100
AcDbSymbolTableRecord
100
AcDbLayerTableRecord
2
CUTOUTS
70
0
62
1
6
CONTINUOUS
0
LAYER
5
52
100
AcDbSymbolTableRecord
100
AcDbLayerTableRecord
2
PERIMETER
70
0
62
5
6
CONTINUOUS
0
ENDTAB
0
TABLE
2
STYLE
5
3
100
AcDbSymbolTable
70
1
0
STYLE
5
11
100
AcDbSymbolTableRecord
100
AcDbTextStyleTableRecord
2
STANDARD
70
0
0
ENDTAB
0
TABLE
2
VIEW
5
6
100
AcDbSymbolTable
0
ENDTAB
0
TABLE
2
UCS
5
7
100
AcDbSymbolTable
0
ENDTAB
0
TABLE
2
APPID
5
9
100
AcDbSymbolTable
70
1
0
APPID
5
12
100
AcDbSymbolTableRecord
100
AcDbRegAppTableRecord
2
ACAD
70
0
0
ENDTAB
0
TABLE
2
DIMSTYLE
5
A
100
AcDbSymbolTable
0
ENDTAB
0
TABLE
2
BLOCK_RECORD
5
1
100
AcDbSymbolTable
70
2
0
BLOCK_RECORD
5
1F
100
AcDbSymbolTableRecord
100
AcDbBlockTableRecord
2
*MODEL_SPACE
0
BLOCK_RECORD
5
1B
100
AcDbSymbolTableRecord
100
AcDbBlockTableRecord
2
*PAPER_SPACE
0
ENDTAB
0
ENDSEC
0
SECTION
2
BLOCKS
0
BLOCK
5
20
100
AcDbEntity
100
AcDbBlockBegin
2
*MODEL_SPACE
0
ENDBLK
5
21
100
AcDbEntity
100
AcDbBlockEnd
0
BLOCK
5
1C
100
AcDbEntity
100
AcDbBlockBegin
2
*PAPER_SPACE
0
ENDBLK
5
1D
100
AcDbEntity
100
AcDbBlockEnd
0
ENDSEC
0
SECTION
2
ENTITIES
0
CIRCLE
5
100
100
AcDbEntity
8
CUTOUTS
100
AcDbCircle
10
159.53374999999994
20
19.943429702997932
30
0
40
1.9999999999999929
210
0
220
0
230
1
0
CIRCLE
5
101
100
AcDbEntity
8
CUTOUTS
100
AcDbCircle
10
-159.54625000000004
20
-37.206570297002074
30
0
40
1.9999999999999929
210
0
220
0
230
1
0
CIRCLE
5
102
100
AcDbEntity
8
CUTOUTS
100
AcDbCircle
10
159.55374999999998
20
-37.206570297002074
30
0
40
1.9999999999999929
210
0
220
0
230
1
0
CIRCLE
5
103
100
AcDbEntity
8
CUTOUTS
100
AcDbCircle
10
80.963749999999948
20
-20.536570297002079
30
0
40
1.9999999999999929
210
0
220
0
230
1
0
CIRCLE
5
104
100
AcDbEntity
8
CUTOUTS
100
AcDbCircle
10
80.954805755615226
20
34.244678202978363
30
0
40
1.9999999999999929
210
0
220
0
230
1
0
CIRCLE
5
105
100
AcDbEntity
8
CUTOUTS
100
AcDbCircle
10
-159.54625000000004
20
19.943429702997932
30
0
40
1.9999999999999929
210
0
220
0
230
1
0
ARC
5
106
100
AcDbEntity
8
CUTOUTS
100
AcDbCircle
10
-161.47500000000005
20
-21.064925052305128
30
0
40
0.49999999999999822
210
0
220
-0
230
1
100
AcDbArc
50
90
51
180
0
LINE
5
107
100
AcDbEntity
8
CUTOUTS
100
AcDbLine
10
-161.97500000000005
20
-34.064925052305114
30
0
11
-161.97500000000005
21
-21.064925052305128
31
0
0
ARC
5
108
100
AcDbEntity
8
CUTOUTS
100
AcDbCircle
10
-161.47500000000005
20
-34.064925052305114
30
0
40
0.50000000000000711
210
0
220
0
230
1
100
AcDbArc
50
180
51
270
0
LINE
5
109
100
AcDbEntity
8
CUTOUTS
100
AcDbLine
10
-110.37500000000001
20
-34.564925052305128
30
0
11
-161.47500000000005
21
-34.564925052305128
31
0
0
ARC
5
10A
100
AcDbEntity
8
CUTOUTS
100
AcDbCircle
10
-110.37500000000001
20
-34.064925052305114
30
0
40
0.50000000000000711
210
-0
220
0
230
1
100
AcDbArc
50
-90
51
0
0
LINE
5
10B
100
AcDbEntity
8
CUTOUTS
100
AcDbLine
10
-109.87500000000003
20
-21.064925052305128
30
0
11
-109.875
21
-34.064925052305114
31
0
0
ARC
5
10C
100
AcDbEntity
8
CUTOUTS
100
AcDbCircle
10
-110.37500000000001
20
-21.064925052305128
30
0
40
0.49999999999998934
210
0
220
-0
230
1
100
AcDbArc
50
0
51
90
0
LINE
5
10D
100
AcDbEntity
8
CUTOUTS
100
AcDbLine
10
-161.47500000000005
20
-20.564925052305128
30
0
11
-110.37500000000001
21
-20.564925052305139
31
0
0
ARC
5
10E
100
AcDbEntity
8
CUTOUTS
100
AcDbCircle
10
-161.47500000000005
20
23.085074947694881
30
0
40
0.50000000000000711
210
0
220
0
230
1
100
AcDbArc
50
180
51
270
0
LINE
5
10F
100
AcDbEntity
8
CUTOUTS
100
AcDbLine
10
-148.47500000000002
20
22.585074947694885
30
0
11
-161.47500000000005
21
22.585074947694874
31
0
0
ARC
5
110
100
AcDbEntity
8
CUTOUTS
100
AcDbCircle
10
-148.47500000000002
20
23.085074947694881
30
0
40
0.49999999999999822
210
-0
220
0
230
1
100
AcDbArc
50
-90
51
0
0
LINE
5
111
100
AcDbEntity
8
CUTOUTS
100
AcDbLine
10
-147.97500000000005
20
36.085074947694892
30
0
11
-147.97500000000002
21
23.085074947694881
31
0
0
ARC
5
112
100
AcDbEntity
8
CUTOUTS
100
AcDbCircle
10
-148.47500000000002
20
36.085074947694892
30
0
40
0.49999999999998934
210
0
220
-0
230
1
100
AcDbArc
50
0
51
90
0
LINE
5
113
100
AcDbEntity
8
CUTOUTS
100
AcDbLine
10
-161.47500000000005
20
36.585074947694892
30
0
11
-148.47500000000002
21
36.585074947694878
31
0
0
ARC
5
114
100
AcDbEntity
8
CUTOUTS
100
AcDbCircle
10
-161.47500000000005
20
36.085074947694892
30
0
40
0.50000000000000266
210
0
220
-0
230
1
100
AcDbArc
50
90
51
180
0
LINE
5
115
100
AcDbEntity
8
CUTOUTS
100
AcDbLine
10
-161.97500000000005
20
23.085074947694881
30
0
11
-161.97500000000005
21
36.085074947694892
31
0
0
ARC
5
116
100
AcDbEntity
8
CUTOUTS
100
AcDbCircle
10
-142.42500000000004
20
23.085074947694881
30
0
40
0.49999999999998934
210
0
220
0
230
1
100
AcDbArc
50
180
51
270
0
LINE
5
117
100
AcDbEntity
8
CUTOUTS
100
AcDbLine
10
-129.42500000000001
20
22.585074947694885
30
0
11
-142.42500000000004
21
22.585074947694892
31
0
0
ARC
5
118
100
AcDbEntity
8
CUTOUTS
100
AcDbCircle
10
-129.42500000000001
20
23.085074947694881
30
0
40
0.49999999999999822
210
-0
220
0
230
1
100
AcDbArc
50
-90
51
0
0
LINE
5
119
100
AcDbEntity
8
CUTOUTS
100
AcDbLine
10
-128.92500000000001
20
36.085074947694892
30
0
11
-128.92500000000001
21
23.085074947694881
31
0
0
ARC
5
11A
100
AcDbEntity
8
CUTOUTS
100
AcDbCircle
10
-129.42500000000001
20
36.085074947694892
30
0
40
0.50000000000000711
210
0
220
-0
230
1
100
AcDbArc
50
0
51
90
0
LINE
5
11B
100
AcDbEntity
8
CUTOUTS
100
AcDbLine
10
-142.42500000000004
20
36.585074947694892
30
0
11
-129.42500000000001
21
36.585074947694892
31
0
0
ARC
5
11C
100
AcDbEntity
8
CUTOUTS
100
AcDbCircle
10
-142.42500000000004
20
36.085074947694892
30
0
40
0.50000000000000266
210
0
220
-0
230
1
100
AcDbArc
50
90
51
180
0
LINE
5
11D
100
AcDbEntity
8
CUTOUTS
100
AcDbLine
10
-142.92500000000001
20
23.085074947694881
30
0
11
-142.92500000000004
21
36.085074947694892
31
0
0
LINE
5
11E
100
AcDbEntity
8
CUTOUTS
100
AcDbLine
10
-109.87500000000003
20
36.085074947694892
30
0
11
-109.875
21
23.085074947694881
31
0
0
ARC
5
11F
100
AcDbEntity
8
CUTOUTS
100
AcDbCircle
10
-110.37500000000001
20
23.085074947694881
30
0
40
0.49999999999999822
210
-0
220
0
230
1
100
AcDbArc
50
-90
51
0
0
LINE
5
120
100
AcDbEntity
8
CUTOUTS
100
AcDbLine
10
-110.37500000000001
20
22.585074947694885
30
0
11
-123.37500000000003
21
22.585074947694892
31
0
0
ARC
5
121
100
AcDbEntity
8
CUTOUTS
100
AcDbCircle
10
-123.37500000000003
20
23.085074947694881
30
0
40
0.49999999999998934
210
0
220
0
230
1
100
AcDbArc
50
180
51
270
0
LINE
5
122
100
AcDbEntity
8
CUTOUTS
100
AcDbLine
10
-123.87500000000001
20
23.085074947694881
30
0
11
-123.87500000000003
21
36.085074947694892
31
0
0
ARC
5
123
100
AcDbEntity
8
CUTOUTS
100
AcDbCircle
10
-123.37500000000003
20
36.085074947694892
30
0
40
0.50000000000000266
210
0
220
-0
230
1
100
AcDbArc
50
90
51
180
0
LINE
5
124
100
AcDbEntity
8
CUTOUTS
100
AcDbLine
10
-123.37500000000003
20
36.585074947694892
30
0
11
-110.37500000000001
21
36.585074947694878
31
0
0
ARC
5
125
100
AcDbEntity
8
CUTOUTS
100
AcDbCircle
10
-110.37500000000001
20
36.085074947694892
30
0
40
0.49999999999998934
210
0
220
-0
230
1
100
AcDbArc
50
0
51
90
0
LINE
5
126
100
AcDbEntity
8
CUTOUTS
100
AcDbLine
10
-104.32500000000003
20
36.585074947694892
30
0
11
-91.325000000000045
21
36.585074947694878
31
0
0
ARC
5
127
100
AcDbEntity
8
CUTOUTS
100
AcDbCircle
10
-91.325000000000045
20
36.085074947694892
30
0
40
0.49999999999998934
210
0
220
-0
230
1
100
AcDbArc
50
0
51
90
0
LINE
5
128
100
AcDbEntity
8
CUTOUTS
100
AcDbLine
10
-90.825000000000045
20
36.085074947694892
30
0
11
-90.825000000000031
21
23.085074947694881
31
0
0
ARC
5
129
100
AcDbEntity
8
CUTOUTS
100
AcDbCircle
10
-91.325000000000045
20
23.085074947694881
30
0
40
0.49999999999999822
210
-0
220
0
230
1
100
AcDbArc
50
-90
51
0
0
LINE
5
12A
100
AcDbEntity
8
CUTOUTS
100
AcDbLine
10
-91.325000000000045
20
22.585074947694885
30
0
11
-104.32500000000003
21
22.585074947694892
31
0
0
ARC
5
12B
100
AcDbEntity
8
CUTOUTS
100
AcDbCircle
10
-104.32500000000003
20
23.085074947694881
30
0
40
0.49999999999998934
210
0
220
0
230
1
100
AcDbArc
50
180
51
270
0
LINE
5
12C
100
AcDbEntity
8
CUTOUTS
100
AcDbLine
10
-104.82500000000002
20
23.085074947694881
30
0
11
-104.82500000000003
21
36.085074947694892
31
0
0
ARC
5
12D
100
AcDbEntity
8
CUTOUTS
100
AcDbCircle
10
-104.32500000000003
20
36.085074947694892
30
0
40
0.50000000000000266
210
0
220
-0
230
1
100
AcDbArc
50
90
51
180
0
ARC
5
12E
100
AcDbEntity
8
CUTOUTS
100
AcDbCircle
10
-85.275000000000034
20
23.085074947694881
30
0
40
0.49999999999998934
210
0
220
0
230
1
100
AcDbArc
50
180
51
270
0
LINE
5
12F
100
AcDbEntity
8
CUTOUTS
100
AcDbLine
10
-72.275000000000006
20
22.585074947694885
30
0
11
-85.275000000000034
21
22.585074947694892
31
0
0
ARC
5
130
100
AcDbEntity
8
CUTOUTS
100
AcDbCircle
10
-72.275000000000006
20
23.085074947694881
30
0
40
0.49999999999999822
210
-0
220
0
230
1
100
AcDbArc
50
-90
51
0
0
LINE
5
131
100
AcDbEntity
8
CUTOUTS
100
AcDbLine
10
-71.77500000000002
20
36.085074947694892
30
0
11
-71.775000000000006
21
23.085074947694881
31
0
0
ARC
5
132
100
AcDbEntity
8
CUTOUTS
100
AcDbCircle
10
-72.275000000000006
20
36.085074947694892
30
0
40
0.49999999999998934
210
0
220
-0
230
1
100
AcDbArc
50
0
51
90
0
LINE
5
133
100
AcDbEntity
8
CUTOUTS
100
AcDbLine
10
-85.275000000000034
20
36.585074947694892
30
0
11
-72.275000000000006
21
36.585074947694878
31
0
0
ARC
5
134
100
AcDbEntity
8
CUTOUTS
100
AcDbCircle
10
-85.275000000000034
20
36.085074947694892
30
0
40
0.50000000000000266
210
0
220
-0
230
1
100
AcDbArc
50
90
51
180
0
LINE
5
135
100
AcDbEntity
8
CUTOUTS
100
AcDbLine
10
-85.77500000000002
20
23.085074947694881
30
0
11
-85.775000000000034
21
36.085074947694892
31
0
0
ARC
5
136
100
AcDbEntity
8
CUTOUTS
100
AcDbCircle
10
-66.225000000000009
20
36.085074947694892
30
0
40
0.50000000000000266
210
0
220
-0
230
1
100
AcDbArc
50
90
51
180
0
LINE
5
137
100
AcDbEntity
8
CUTOUTS
100
AcDbLine
10
-66.724999999999994
20
23.085074947694881
30
0
11
-66.725000000000009
21
36.085074947694892
31
0
0
ARC
5
138
100
AcDbEntity
8
CUTOUTS
100
AcDbCircle
10
-66.225000000000009
20
23.085074947694881
30
0
40
0.49999999999998934
210
0
220
0
230
1
100
AcDbArc
50
180
51
270
0
LINE
5
139
100
AcDbEntity
8
CUTOUTS
100
AcDbLine
10
-53.224999999999994
20
22.585074947694885
30
0
11
-66.225000000000009
21
22.585074947694892
31
0
0
ARC
5
13A
100
AcDbEntity
8
CUTOUTS
100
AcDbCircle
10
-53.224999999999994
20
23.085074947694881
30
0
40
0.49999999999999822
210
-0
220
0
230
1
100
AcDbArc
50
-90
51
0
0
LINE
5
13B
100
AcDbEntity
8
CUTOUTS
100
AcDbLine
10
-52.724999999999994
20
36.085074947694892
30
0
11
-52.725000000000001
21
23.085074947694881
31
0
0
ARC
5
13C
100
AcDbEntity
8
CUTOUTS
100
AcDbCircle
10
-53.224999999999994
20
36.085074947694892
30
0
40
0.50000000000000711
210
0
220
-0
230
1
100
AcDbArc
50
0
51
90
0
LINE
5
13D
100
AcDbEntity
8
CUTOUTS
100
AcDbLine
10
-66.225000000000009
20
36.585074947694892
30
0
11
-53.224999999999994
21
36.585074947694892
31
0
0
ARC
5
13E
100
AcDbEntity
8
CUTOUTS
100
AcDbCircle
10
-47.174999999999997
20
36.085074947694892
30
0
40
0.50000000000000266
210
0
220
-0
230
1
100
AcDbArc
50
90
51
180
0
LINE
5
13F
100
AcDbEntity
8
CUTOUTS
100
AcDbLine
10
-47.674999999999997
20
23.085074947694881
30
0
11
-47.674999999999997
21
36.085074947694892
31
0
0
ARC
5
140
100
AcDbEntity
8
CUTOUTS
100
AcDbCircle
10
-47.174999999999997
20
23.085074947694881
30
0
40
0.50000000000000711
210
0
220
0
230
1
100
AcDbArc
50
180
51
270
0
LINE
5
141
100
AcDbEntity
8
CUTOUTS
100
AcDbLine
10
-34.175000000000026
20
22.585074947694885
30
0
11
-47.174999999999997
21
22.585074947694874
31
0
0
ARC
5
142
100
AcDbEntity
8
CUTOUTS
100
AcDbCircle
10
-34.175000000000026
20
23.085074947694881
30
0
40
0.49999999999999822
210
-0
220
0
230
1
100
AcDbArc
50
-90
51
0
0
LINE
5
143
100
AcDbEntity
8
CUTOUTS
100
AcDbLine
10
-33.675000000000011
20
36.085074947694892
30
0
11
-33.675000000000026
21
23.085074947694881
31
0
0
ARC
5
144
100
AcDbEntity
8
CUTOUTS
100
AcDbCircle
10
-34.175000000000026
20
36.085074947694892
30
0
40
0.50000000000000711
210
0
220
-0
230
1
100
AcDbArc
50
0
51
90
0
LINE
5
145
100
AcDbEntity
8
CUTOUTS
100
AcDbLine
10
-47.174999999999997
20
36.585074947694892
30
0
11
-34.175000000000026
21
36.585074947694892
31
0
0
ARC
5
146
100
AcDbEntity
8
CUTOUTS
100
AcDbCircle
10
-28.125
20
23.085074947694881
30
0
40
0.50000000000000711
210
0
220
0
230
1
100
AcDbArc
50
180
51
270
0
LINE
5
147
100
AcDbEntity
8
CUTOUTS
100
AcDbLine
10
-15.125000000000014
20
22.585074947694885
30
0
11
-28.125
21
22.585074947694874
31
0
0
ARC
5
148
100
AcDbEntity
8
CUTOUTS
100
AcDbCircle
10
-15.125000000000014
20
23.085074947694881
30
0
40
0.49999999999999822
210
-0
220
0
230
1
100
AcDbArc
50
-90
51
0
0
LINE
5
149
100
AcDbEntity
8
CUTOUTS
100
AcDbLine
10
-14.625000000000007
20
36.085074947694892
30
0
11
-14.625000000000018
21
23.085074947694881
31
0
0
ARC
5
14A
100
AcDbEntity
8
CUTOUTS
100
AcDbCircle
10
-15.125000000000014
20
36.085074947694892
30
0
40
0.50000000000000711
210
0
220
-0
230
1
100
AcDbArc
50
0
51
90
0
LINE
5
14B
100
AcDbEntity
8
CUTOUTS
100
AcDbLine
10
-28.125
20
36.585074947694892
30
0
11
-15.125000000000014
21
36.585074947694892
31
0
0
ARC
5
14C
100
AcDbEntity
8
CUTOUTS
100
AcDbCircle
10
-28.125
20
36.085074947694892
30
0
40
0.50000000000000266
210
0
220
-0
230
1
100
AcDbArc
50
90
51
180
0
LINE
5
14D
100
AcDbEntity
8
CUTOUTS
100
AcDbLine
10
-28.625000000000007
20
23.085074947694881
30
0
11
-28.625000000000004
21
36.085074947694892
31
0
0
ARC
5
14E
100
AcDbEntity
8
CUTOUTS
100
AcDbCircle
10
-9.0749999999999922
20
23.085074947694881
30
0
40
0.50000000000000711
210
0
220
0
230
1
100
AcDbArc
50
180
51
270
0
LINE
5
14F
100
AcDbEntity
8
CUTOUTS
100
AcDbLine
10
3.9249999999999972
20
22.585074947694885
30
0
11
-9.0749999999999922
21
22.585074947694874
31
0
0
ARC
5
150
100
AcDbEntity
8
CUTOUTS
100
AcDbCircle
10
3.9249999999999972
20
23.085074947694881
30
0
40
0.49999999999999822
210
-0
220
0
230
1
100
AcDbArc
50
-90
51
0
0
LINE
5
151
100
AcDbEntity
8
CUTOUTS
100
AcDbLine
10
4.4250000000000043
20
36.085074947694892
30
0
11
4.4249999999999954
21
23.085074947694881
31
0
0
ARC
5
152
100
AcDbEntity
8
CUTOUTS
100
AcDbCircle
10
3.9249999999999972
20
36.085074947694892
30
0
40
0.50000000000000711
210
0
220
-0
230
1
100
AcDbArc
50
0
51
90.000000000000099
0
LINE
5
153
100
AcDbEntity
8
CUTOUTS
100
AcDbLine
10
-9.0749999999999922
20
36.585074947694892
30
0
11
3.9249999999999963
21
36.585074947694892
31
0
0
ARC
5
154
100
AcDbEntity
8
CUTOUTS
100
AcDbCircle
10
-9.0749999999999922
20
36.085074947694892
30
0
40
0.50000000000000266
210
0
220
-0
230
1
100
AcDbArc
50
90
51
180
0
LINE
5
155
100
AcDbEntity
8
CUTOUTS
100
AcDbLine
10
-9.5749999999999993
20
23.085074947694881
30
0
11
-9.5749999999999957
21
36.085074947694892
31
0
0
ARC
5
156
100
AcDbEntity
8
CUTOUTS
100
AcDbCircle
10
9.9750000000000014
20
23.085074947694881
30
0
40
0.50000000000000711
210
0
220
0
230
1
100
AcDbArc
50
180
51
270
0
LINE
5
157
100
AcDbEntity
8
CUTOUTS
100
AcDbLine
10
22.974999999999977
20
22.585074947694885
30
0
11
9.9750000000000014
21
22.585074947694874
31
0
0
ARC
5
158
100
AcDbEntity
8
CUTOUTS
100
AcDbCircle
10
22.974999999999977
20
23.085074947694881
30
0
40
0.49999999999999822
210
-0
220
0
230
1
100
AcDbArc
50
-90
51
0
0
LINE
5
159
100
AcDbEntity
8
CUTOUTS
100
AcDbLine
10
23.474999999999984
20
36.085074947694892
30
0
11
23.474999999999973
21
23.085074947694881
31
0
0
ARC
5
15A
100
AcDbEntity
8
CUTOUTS
100
AcDbCircle
10
22.974999999999977
20
36.085074947694892
30
0
40
0.50000000000000711
210
0
220
-0
230
1
100
AcDbArc
50
0
51
90
0
LINE
5
15B
100
AcDbEntity
8
CUTOUTS
100
AcDbLine
10
9.9750000000000014
20
36.585074947694892
30
0
11
22.974999999999977
21
36.585074947694892
31
0
0
ARC
5
15C
100
AcDbEntity
8
CUTOUTS
100
AcDbCircle
10
9.9750000000000014
20
36.085074947694892
30
0
40
0.50000000000000266
210
0
220
-0
230
1
100
AcDbArc
50
90
51
180
0
LINE
5
15D
100
AcDbEntity
8
CUTOUTS
100
AcDbLine
10
9.4749999999999943
20
23.085074947694881
30
0
11
9.4749999999999979
21
36.085074947694892
31
0
0
LINE
5
15E
100
AcDbEntity
8
CUTOUTS
100
AcDbLine
10
28.525000000000009
20
23.085074947694881
30
0
11
28.525000000000013
21
36.085074947694892
31
0
0
ARC
5
15F
100
AcDbEntity
8
CUTOUTS
100
AcDbCircle
10
29.025000000000016
20
36.085074947694892
30
0
40
0.50000000000000266
210
0
220
-0
230
1
100
AcDbArc
50
90
51
180
0
LINE
5
160
100
AcDbEntity
8
CUTOUTS
100
AcDbLine
10
29.025000000000016
20
36.585074947694892
30
0
11
42.02500000000002
21
36.585074947694864
31
0
0
ARC
5
161
100
AcDbEntity
8
CUTOUTS
100
AcDbCircle
10
42.02500000000002
20
36.085074947694892
30
0
40
0.49999999999997158
210
0
220
-0
230
1
100
AcDbArc
50
0
51
90
0
LINE
5
162
100
AcDbEntity
8
CUTOUTS
100
AcDbLine
10
42.524999999999991
20
36.085074947694892
30
0
11
42.52500000000002
21
23.085074947694881
31
0
0
ARC
5
163
100
AcDbEntity
8
CUTOUTS
100
AcDbCircle
10
42.02500000000002
20
23.085074947694881
30
0
40
0.49999999999999822
210
-0
220
0
230
1
100
AcDbArc
50
-90
51
0
0
LINE
5
164
100
AcDbEntity
8
CUTOUTS
100
AcDbLine
10
42.02500000000002
20
22.585074947694885
30
0
11
29.025000000000016
21
22.585074947694874
31
0
0
ARC
5
165
100
AcDbEntity
8
CUTOUTS
100
AcDbCircle
10
29.025000000000016
20
23.085074947694881
30
0
40
0.50000000000000711
210
0
220
0
230
1
100
AcDbArc
50
180
51
270
0
ARC
5
166
100
AcDbEntity
8
CUTOUTS
100
AcDbCircle
10
68.21875
20
36.085074947694892
30
0
40
0.50000000000000711
210
0
220
-0
230
1
100
AcDbArc
50
0
51
90
0
LINE
5
167
100
AcDbEntity
8
CUTOUTS
100
AcDbLine
10
55.21875
20
36.585074947694892
30
0
11
68.21875
21
36.585074947694892
31
0
0
ARC
5
168
100
AcDbEntity
8
CUTOUTS
100
AcDbCircle
10
55.21875
20
36.085074947694892
30
0
40
0.50000000000000266
210
0
220
-0
230
1
100
AcDbArc
50
90
51
180
0
LINE
5
169
100
AcDbEntity
8
CUTOUTS
100
AcDbLine
10
54.718749999999986
20
23.085074947694881
30
0
11
54.718749999999986
21
36.085074947694892
31
0
0
ARC
5
16A
100
AcDbEntity
8
CUTOUTS
100
AcDbCircle
10
55.21875
20
23.085074947694881
30
0
40
0.50000000000000711
210
0
220
0
230
1
100
AcDbArc
50
180
51
270
0
LINE
5
16B
100
AcDbEntity
8
CUTOUTS
100
AcDbLine
10
68.21875
20
22.585074947694885
30
0
11
55.21875
21
22.585074947694874
31
0
0
ARC
5
16C
100
AcDbEntity
8
CUTOUTS
100
AcDbCircle
10
68.21875
20
23.085074947694881
30
0
40
0.49999999999999822
210
-0
220
0
230
1
100
AcDbArc
50
-90
51
0
0
LINE
5
16D
100
AcDbEntity
8
CUTOUTS
100
AcDbLine
10
68.718750000000014
20
36.085074947694892
30
0
11
68.71875
21
23.085074947694881
31
0
0
LINE
5
16E
100
AcDbEntity
8
CUTOUTS
100
AcDbLine
10
86.174999999999997
20
36.585074947694892
30
0
11
99.175000000000011
21
36.585074947694892
31
0
0
ARC
5
16F
100
AcDbEntity
8
CUTOUTS
100
AcDbCircle
10
99.175000000000011
20
36.085074947694892
30
0
40
0.50000000000000711
210
0
220
-0
230
1
100
AcDbArc
50
0
51
90
0
LINE
5
170
100
AcDbEntity
8
CUTOUTS
100
AcDbLine
10
99.675000000000011
20
36.085074947694892
30
0
11
99.675000000000011
21
23.085074947694881
31
0
0
ARC
5
171
100
AcDbEntity
8
CUTOUTS
100
AcDbCircle
10
99.175000000000011
20
23.085074947694881
30
0
40
0.49999999999999822
210
-0
220
0
230
1
100
AcDbArc
50
-90
51
0
0
LINE
5
172
100
AcDbEntity
8
CUTOUTS
100
AcDbLine
10
99.175000000000011
20
22.585074947694885
30
0
11
86.174999999999997
21
22.585074947694874
31
0
0
ARC
5
173
100
AcDbEntity
8
CUTOUTS
100
AcDbCircle
10
86.174999999999997
20
23.085074947694881
30
0
40
0.50000000000000711
210
0
220
0
230
1
100
AcDbArc
50
180
51
270
0
LINE
5
174
100
AcDbEntity
8
CUTOUTS
100
AcDbLine
10
85.674999999999983
20
23.085074947694881
30
0
11
85.674999999999983
21
36.085074947694892
31
0
0
ARC
5
175
100
AcDbEntity
8
CUTOUTS
100
AcDbCircle
10
86.174999999999997
20
36.085074947694892
30
0
40
0.50000000000000266
210
0
220
-0
230
1
100
AcDbArc
50
90
51
180
0
LINE
5
176
100
AcDbEntity
8
CUTOUTS
100
AcDbLine
10
109.98750000000001
20
36.585074947694892
30
0
11
122.98749999999998
21
36.585074947694892
31
0
0
ARC
5
177
100
AcDbEntity
8
CUTOUTS
100
AcDbCircle
10
122.98749999999998
20
36.085074947694892
30
0
40
0.50000000000000711
210
0
220
-0
230
1
100
AcDbArc
50
0
51
90
0
LINE
5
178
100
AcDbEntity
8
CUTOUTS
100
AcDbLine
10
123.48749999999998
20
36.085074947694892
30
0
11
123.48749999999998
21
23.085074947694881
31
0
0
ARC
5
179
100
AcDbEntity
8
CUTOUTS
100
AcDbCircle
10
122.98749999999998
20
23.085074947694881
30
0
40
0.49999999999999822
210
-0
220
0
230
1
100
AcDbArc
50
-90
51
0
0
LINE
5
17A
100
AcDbEntity
8
CUTOUTS
100
AcDbLine
10
122.98749999999998
20
22.585074947694885
30
0
11
109.98750000000001
21
22.585074947694874
31
0
0
ARC
5
17B
100
AcDbEntity
8
CUTOUTS
100
AcDbCircle
10
109.98750000000001
20
23.085074947694881
30
0
40
0.50000000000000711
210
0
220
0
230
1
100
AcDbArc
50
180
51
270
0
LINE
5
17C
100
AcDbEntity
8
CUTOUTS
100
AcDbLine
10
109.48750000000001
20
23.085074947694881
30
0
11
109.48750000000001
21
36.085074947694892
31
0
0
ARC
5
17D
100
AcDbEntity
8
CUTOUTS
100
AcDbCircle
10
109.98750000000001
20
36.085074947694892
30
0
40
0.50000000000000266
210
0
220
-0
230
1
100
AcDbArc
50
90
51
180
0
ARC
5
17E
100
AcDbEntity
8
CUTOUTS
100
AcDbCircle
10
129.03750000000002
20
23.085074947694881
30
0
40
0.50000000000000711
210
0
220
0
230
1
100
AcDbArc
50
180
51
270
0
LINE
5
17F
100
AcDbEntity
8
CUTOUTS
100
AcDbLine
10
142.03749999999999
20
22.585074947694885
30
0
11
129.03750000000002
21
22.585074947694874
31
0
0
ARC
5
180
100
AcDbEntity
8
CUTOUTS
100
AcDbCircle
10
142.03749999999999
20
23.085074947694881
30
0
40
0.49999999999999822
210
-0
220
0
230
1
100
AcDbArc
50
-90
51
0
0
LINE
5
181
100
AcDbEntity
8
CUTOUTS
100
AcDbLine
10
142.53749999999999
20
36.085074947694892
30
0
11
142.53749999999999
21
23.085074947694881
31
0
0
ARC
5
182
100
AcDbEntity
8
CUTOUTS
100
AcDbCircle
10
142.03749999999999
20
36.085074947694892
30
0
40
0.50000000000000711
210
0
220
-0
230
1
100
AcDbArc
50
0
51
90
0
LINE
5
183
100
AcDbEntity
8
CUTOUTS
100
AcDbLine
10
129.03750000000002
20
36.585074947694892
30
0
11
142.03749999999999
21
36.585074947694892
31
0
0
ARC
5
184
100
AcDbEntity
8
CUTOUTS
100
AcDbCircle
10
129.03750000000002
20
36.085074947694892
30
0
40
0.50000000000000266
210
0
220
-0
230
1
100
AcDbArc
50
90
51
180
0
LINE
5
185
100
AcDbEntity
8
CUTOUTS
100
AcDbLine
10
128.53750000000002
20
23.085074947694881
30
0
11
128.53750000000002
21
36.085074947694892
31
0
0
ARC
5
186
100
AcDbEntity
8
CUTOUTS
100
AcDbCircle
10
148.08749999999998
20
23.085074947694881
30
0
40
0.50000000000000711
210
0
220
0
230
1
100
AcDbArc
50
180
51
270
0
LINE
5
187
100
AcDbEntity
8
CUTOUTS
100
AcDbLine
10
161.08749999999992
20
22.585074947694885
30
0
11
148.08749999999998
21
22.585074947694874
31
0
0
ARC
5
188
100
AcDbEntity
8
CUTOUTS
100
AcDbCircle
10
161.08749999999992
20
23.085074947694881
30
0
40
0.49999999999999822
210
-0
220
0
230
1
100
AcDbArc
50
-90
51
0
0
LINE
5
189
100
AcDbEntity
8
CUTOUTS
100
AcDbLine
10
161.58749999999998
20
36.085074947694892
30
0
11
161.58749999999995
21
23.085074947694881
31
0
0
ARC
5
18A
100
AcDbEntity
8
CUTOUTS
100
AcDbCircle
10
161.08749999999992
20
36.085074947694892
30
0
40
0.50000000000004263
210
0
220
-0
230
1
100
AcDbArc
50
0
51
90
0
LINE
5
18B
100
AcDbEntity
8
CUTOUTS
100
AcDbLine
10
148.08749999999998
20
36.585074947694892
30
0
11
161.08749999999992
21
36.585074947694935
31
0
0
ARC
5
18C
100
AcDbEntity
8
CUTOUTS
100
AcDbCircle
10
148.08749999999998
20
36.085074947694892
30
0
40
0.50000000000000266
210
0
220
-0
230
1
100
AcDbArc
50
90
51
180
0
LINE
5
18D
100
AcDbEntity
8
CUTOUTS
100
AcDbLine
10
147.58749999999995
20
23.085074947694881
30
0
11
147.58749999999995
21
36.085074947694892
31
0
0
ARC
5
18E
100
AcDbEntity
8
CUTOUTS
100
AcDbCircle
10
-159.09375000000006
20
4.0350749476948593
30
0
40
0.50000000000000711
210
0
220
0
230
1
100
AcDbArc
50
180
51
270
0
LINE
5
18F
100
AcDbEntity
8
CUTOUTS
100
AcDbLine
10
-146.09375000000003
20
3.5350749476948562
30
0
11
-159.09375000000006
21
3.5350749476948522
31
0
0
ARC
5
190
100
AcDbEntity
8
CUTOUTS
100
AcDbCircle
10
-146.09375000000003
20
4.0350749476948593
30
0
40
0.50000000000000322
210
-0
220
0
230
1
100
AcDbArc
50
-90
51
0
0
LINE
5
191
100
AcDbEntity
8
CUTOUTS
100
AcDbLine
10
-145.59375000000006
20
17.035074947694863
30
0
11
-145.59375000000003
21
4.0350749476948593
31
0
0
ARC
5
192
100
AcDbEntity
8
CUTOUTS
100
AcDbCircle
10
-146.09375000000003
20
17.035074947694863
30
0
40
0.49999999999998934
210
0
220
-0
230
1
100
AcDbArc
50
0
51
90
0
LINE
5
193
100
AcDbEntity
8
CUTOUTS
100
AcDbLine
10
-159.09375000000006
20
17.53507494769487
30
0
11
-146.09375000000003
21
17.535074947694852
31
0
0
ARC
5
194
100
AcDbEntity
8
CUTOUTS
100
AcDbCircle
10
-159.09375000000006
20
17.035074947694863
30
0
40
0.50000000000000711
210
0
220
-0
230
1
100
AcDbArc
50
90
51
180
0
LINE
5
195
100
AcDbEntity
8
CUTOUTS
100
AcDbLine
10
-159.59375000000006
20
4.0350749476948593
30
0
11
-159.59375000000006
21
17.035074947694863
31
0
0
ARC
5
196
100
AcDbEntity
8
CUTOUTS
100
AcDbCircle
10
-137.66250000000002
20
4.0350749476948593
30
0
40
0.49999999999998934
210
0
220
0
230
1
100
AcDbArc
50
180
51
270
0
LINE
5
197
100
AcDbEntity
8
CUTOUTS
100
AcDbLine
10
-124.66250000000002
20
3.5350749476948562
30
0
11
-137.66250000000002
21
3.53507494769487
31
0
0
ARC
5
198
100
AcDbEntity
8
CUTOUTS
100
AcDbCircle
10
-124.66250000000002
20
4.0350749476948593
30
0
40
0.50000000000000322
210
-0
220
0
230
1
100
AcDbArc
50
-90
51
0
0
LINE
5
199
100
AcDbEntity
8
CUTOUTS
100
AcDbLine
10
-124.16250000000002
20
17.035074947694863
30
0
11
-124.16250000000002
21
4.0350749476948593
31
0
0
ARC
5
19A
100
AcDbEntity
8
CUTOUTS
100
AcDbCircle
10
-124.66250000000002
20
17.035074947694863
30
0
40
0.50000000000000711
210
0
220
-0
230
1
100
AcDbArc
50
0
51
90
0
LINE
5
19B
100
AcDbEntity
8
CUTOUTS
100
AcDbLine
10
-137.66250000000002
20
17.53507494769487
30
0
11
-124.66250000000002
21
17.53507494769487
31
0
0
ARC
5
19C
100
AcDbEntity
8
CUTOUTS
100
AcDbCircle
10
-137.66250000000002
20
17.035074947694863
30
0
40
0.50000000000000711
210
0
220
-0
230
1
100
AcDbArc
50
90
51
180
0
LINE
5
19D
100
AcDbEntity
8
CUTOUTS
100
AcDbLine
10
-138.16250000000002
20
4.0350749476948593
30
0
11
-138.16250000000002
21
17.035074947694863
31
0
0
LINE
5
19E
100
AcDbEntity
8
CUTOUTS
100
AcDbLine
10
-105.11250000000003
20
17.035074947694863
30
0
11
-105.11250000000001
21
4.0350749476948593
31
0
0
ARC
5
19F
100
AcDbEntity
8
CUTOUTS
100
AcDbCircle
10
-105.61250000000001
20
4.0350749476948593
30
0
40
0.50000000000000322
210
-0
220
0
230
1
100
AcDbArc
50
-90
51
0
0
LINE
5
1A0
100
AcDbEntity
8
CUTOUTS
100
AcDbLine
10
-105.61250000000001
20
3.5350749476948562
30
0
11
-118.61250000000001
21
3.53507494769487
31
0
0
ARC
5
1A1
100
AcDbEntity
8
CUTOUTS
100
AcDbCircle
10
-118.61250000000001
20
4.0350749476948593
30
0
40
0.49999999999998934
210
0
220
0
230
1
100
AcDbArc
50
180
51
270
0
LINE
5
1A2
100
AcDbEntity
8
CUTOUTS
100
AcDbLine
10
-119.11250000000001
20
4.0350749476948593
30
0
11
-119.11250000000003
21
17.035074947694863
31
0
0
ARC
5
1A3
100
AcDbEntity
8
CUTOUTS
100
AcDbCircle
10
-118.61250000000001
20
17.035074947694863
30
0
40
0.50000000000000711
210
0
220
-0
230
1
100
AcDbArc
50
90
51
180
0
LINE
5
1A4
100
AcDbEntity
8
CUTOUTS
100
AcDbLine
10
-118.61250000000001
20
17.53507494769487
30
0
11
-105.61250000000001
21
17.535074947694852
31
0
0
ARC
5
1A5
100
AcDbEntity
8
CUTOUTS
100
AcDbCircle
10
-105.61250000000001
20
17.035074947694863
30
0
40
0.49999999999998934
210
0
220
-0
230
1
100
AcDbArc
50
0
51
90
0
LINE
5
1A6
100
AcDbEntity
8
CUTOUTS
100
AcDbLine
10
-100.06250000000001
20
4.0350749476948593
30
0
11
-100.06250000000003
21
17.035074947694863
31
0
0
ARC
5
1A7
100
AcDbEntity
8
CUTOUTS
100
AcDbCircle
10
-99.562500000000028
20
17.035074947694863
30
0
40
0.50000000000000711
210
0
220
-0
230
1
100
AcDbArc
50
90
51
180
0
LINE
5
1A8
100
AcDbEntity
8
CUTOUTS
100
AcDbLine
10
-99.562500000000028
20
17.53507494769487
30
0
11
-86.562500000000028
21
17.535074947694852
31
0
0
ARC
5
1A9
100
AcDbEntity
8
CUTOUTS
100
AcDbCircle
10
-86.562500000000028
20
17.035074947694863
30
0
40
0.49999999999998934
210
0
220
-0
230
1
100
AcDbArc
50
0
51
90
0
LINE
5
1AA
100
AcDbEntity
8
CUTOUTS
100
AcDbLine
10
-86.062500000000043
20
17.035074947694863
30
0
11
-86.062500000000028
21
4.0350749476948593
31
0
0
ARC
5
1AB
100
AcDbEntity
8
CUTOUTS
100
AcDbCircle
10
-86.562500000000028
20
4.0350749476948593
30
0
40
0.50000000000000322
210
-0
220
0
230
1
100
AcDbArc
50
-90
51
0
0
LINE
5
1AC
100
AcDbEntity
8
CUTOUTS
100
AcDbLine
10
-86.562500000000028
20
3.5350749476948562
30
0
11
-99.562500000000028
21
3.53507494769487
31
0
0
ARC
5
1AD
100
AcDbEntity
8
CUTOUTS
100
AcDbCircle
10
-99.562500000000028
20
4.0350749476948593
30
0
40
0.49999999999998934
210
0
220
0
230
1
100
AcDbArc
50
180
51
270
0
ARC
5
1AE
100
AcDbEntity
8
CUTOUTS
100
AcDbCircle
10
-80.512500000000031
20
4.0350749476948593
30
0
40
0.49999999999998934
210
0
220
0
230
1
100
AcDbArc
50
180
51
270
0
LINE
5
1AF
100
AcDbEntity
8
CUTOUTS
100
AcDbLine
10
-67.512500000000003
20
3.5350749476948562
30
0
11
-80.512500000000031
21
3.53507494769487
31
0
0
ARC
5
1B0
100
AcDbEntity
8
CUTOUTS
100
AcDbCircle
10
-67.512500000000003
20
4.0350749476948593
30
0
40
0.50000000000000322
210
-0
220
0
230
1
100
AcDbArc
50
-90
51
0
0
LINE
5
1B1
100
AcDbEntity
8
CUTOUTS
100
AcDbLine
10
-67.012500000000003
20
17.035074947694863
30
0
11
-67.012500000000003
21
4.0350749476948593
31
0
0
ARC
5
1B2
100
AcDbEntity
8
CUTOUTS
100
AcDbCircle
10
-67.512500000000003
20
17.035074947694863
30
0
40
0.50000000000000711
210
0
220
-0
230
1
100
AcDbArc
50
0
51
90
0
LINE
5
1B3
100
AcDbEntity
8
CUTOUTS
100
AcDbLine
10
-80.512500000000031
20
17.53507494769487
30
0
11
-67.512500000000003
21
17.53507494769487
31
0
0
ARC
5
1B4
100
AcDbEntity
8
CUTOUTS
100
AcDbCircle
10
-80.512500000000031
20
17.035074947694863
30
0
40
0.50000000000000711
210
0
220
-0
230
1
100
AcDbArc
50
90
51
180
0
LINE
5
1B5
100
AcDbEntity
8
CUTOUTS
100
AcDbLine
10
-81.012500000000017
20
4.0350749476948593
30
0
11
-81.012500000000045
21
17.035074947694863
31
0
0
ARC
5
1B6
100
AcDbEntity
8
CUTOUTS
100
AcDbCircle
10
-61.462500000000006
20
4.0350749476948593
30
0
40
0.50000000000000711
210
0
220
0
230
1
100
AcDbArc
50
180
51
270
0
LINE
5
1B7
100
AcDbEntity
8
CUTOUTS
100
AcDbLine
10
-48.462500000000013
20
3.5350749476948562
30
0
11
-61.462500000000006
21
3.5350749476948522
31
0
0
ARC
5
1B8
100
AcDbEntity
8
CUTOUTS
100
AcDbCircle
10
-48.462500000000013
20
4.0350749476948593
30
0
40
0.50000000000000322
210
-0
220
0
230
1
100
AcDbArc
50
-90
51
0
0
LINE
5
1B9
100
AcDbEntity
8
CUTOUTS
100
AcDbLine
10
-47.962500000000006
20
17.035074947694863
30
0
11
-47.962500000000006
21
4.0350749476948593
31
0
0
ARC
5
1BA
100
AcDbEntity
8
CUTOUTS
100
AcDbCircle
10
-48.462500000000013
20
17.035074947694863
30
0
40
0.50000000000000711
210
0
220
-0
230
1
100
AcDbArc
50
0
51
90
0
LINE
5
1BB
100
AcDbEntity
8
CUTOUTS
100
AcDbLine
10
-61.462500000000006
20
17.53507494769487
30
0
11
-48.462500000000013
21
17.53507494769487
31
0
0
ARC
5
1BC
100
AcDbEntity
8
CUTOUTS
100
AcDbCircle
10
-61.462500000000006
20
17.035074947694863
30
0
40
0.50000000000000711
210
0
220
-0
230
1
100
AcDbArc
50
90
51
180
0
LINE
5
1BD
100
AcDbEntity
8
CUTOUTS
100
AcDbLine
10
-61.962500000000006
20
4.0350749476948593
30
0
11
-61.962500000000006
21
17.035074947694863
31
0
0
ARC
5
1BE
100
AcDbEntity
8
CUTOUTS
100
AcDbCircle
10
-29.412500000000001
20
17.035074947694863
30
0
40
0.50000000000000711
210
0
220
-0
230
1
100
AcDbArc
50
0
51
90
0
LINE
5
1BF
100
AcDbEntity
8
CUTOUTS
100
AcDbLine
10
-42.412499999999994
20
17.53507494769487
30
0
11
-29.412500000000001
21
17.53507494769487
31
0
0
ARC
5
1C0
100
AcDbEntity
8
CUTOUTS
100
AcDbCircle
10
-42.412499999999994
20
17.035074947694863
30
0
40
0.50000000000000711
210
0
220
-0
230
1
100
AcDbArc
50
90
51
180
0
LINE
5
1C1
100
AcDbEntity
8
CUTOUTS
100
AcDbLine
10
-42.912499999999994
20
4.0350749476948593
30
0
11
-42.912499999999994
21
17.035074947694863
31
0
0
ARC
5
1C2
100
AcDbEntity
8
CUTOUTS
100
AcDbCircle
10
-42.412499999999994
20
4.0350749476948593
30
0
40
0.50000000000000711
210
0
220
0
230
1
100
AcDbArc
50
180
51
270
0
LINE
5
1C3
100
AcDbEntity
8
CUTOUTS
100
AcDbLine
10
-29.412500000000001
20
3.5350749476948562
30
0
11
-42.412499999999994
21
3.5350749476948522
31
0
0
ARC
5
1C4
100
AcDbEntity
8
CUTOUTS
100
AcDbCircle
10
-29.412500000000001
20
4.0350749476948593
30
0
40
0.50000000000000322
210
-0
220
0
230
1
100
AcDbArc
50
-90
51
0
0
LINE
5
1C5
100
AcDbEntity
8
CUTOUTS
100
AcDbLine
10
-28.912499999999994
20
17.035074947694863
30
0
11
-28.912499999999998
21
4.0350749476948593
31
0
0
LINE
5
1C6
100
AcDbEntity
8
CUTOUTS
100
AcDbLine
10
-23.362500000000015
20
17.53507494769487
30
0
11
-10.362500000000011
21
17.535074947694852
31
0
0
ARC
5
1C7
100
AcDbEntity
8
CUTOUTS
100
AcDbCircle
10
-10.362500000000011
20
17.035074947694863
30
0
40
0.49999999999998934
210
0
220
-0
230
1
100
AcDbArc
50
0
51
90
0
LINE
5
1C8
100
AcDbEntity
8
CUTOUTS
100
AcDbLine
10
-9.862500000000022
20
17.035074947694863
30
0
11
-9.8625000000000096
21
4.0350749476948593
31
0
0
ARC
5
1C9
100
AcDbEntity
8
CUTOUTS
100
AcDbCircle
10
-10.362500000000011
20
4.0350749476948593
30
0
40
0.50000000000000322
210
-0
220
0
230
1
100
AcDbArc
50
-90
51
0
0
LINE
5
1CA
100
AcDbEntity
8
CUTOUTS
100
AcDbLine
10
-10.362500000000011
20
3.5350749476948562
30
0
11
-23.362500000000015
21
3.5350749476948522
31
0
0
ARC
5
1CB
100
AcDbEntity
8
CUTOUTS
100
AcDbCircle
10
-23.362500000000015
20
4.0350749476948593
30
0
40
0.50000000000000711
210
0
220
0
230
1
100
AcDbArc
50
180
51
270
0
LINE
5
1CC
100
AcDbEntity
8
CUTOUTS
100
AcDbLine
10
-23.862500000000022
20
4.0350749476948593
30
0
11
-23.862500000000022
21
17.035074947694863
31
0
0
ARC
5
1CD
100
AcDbEntity
8
CUTOUTS
100
AcDbCircle
10
-23.362500000000015
20
17.035074947694863
30
0
40
0.50000000000000711
210
0
220
-0
230
1
100
AcDbArc
50
90
51
180
0
ARC
5
1CE
100
AcDbEntity
8
CUTOUTS
100
AcDbCircle
10
8.6875
20
4.0350749476948593
30
0
40
0.50000000000000322
210
-0
220
0
230
1
100
AcDbArc
50
-90
51
0
0
LINE
5
1CF
100
AcDbEntity
8
CUTOUTS
100
AcDbLine
10
9.1875000000000071
20
17.035074947694863
30
0
11
9.1875000000000018
21
4.0350749476948593
31
0
0
ARC
5
1D0
100
AcDbEntity
8
CUTOUTS
100
AcDbCircle
10
8.6875
20
17.035074947694863
30
0
40
0.50000000000000711
210
0
220
-0
230
1
100
AcDbArc
50
0
51
90
0
LINE
5
1D1
100
AcDbEntity
8
CUTOUTS
100
AcDbLine
10
-4.3125000000000071
20
17.53507494769487
30
0
11
8.6875
21
17.53507494769487
31
0
0
ARC
5
1D2
100
AcDbEntity
8
CUTOUTS
100
AcDbCircle
10
-4.3125000000000071
20
17.035074947694863
30
0
40
0.50000000000000711
210
0
220
-0
230
1
100
AcDbArc
50
90
51
180
0
LINE
5
1D3
100
AcDbEntity
8
CUTOUTS
100
AcDbLine
10
-4.8125000000000142
20
4.0350749476948593
30
0
11
-4.8125000000000142
21
17.035074947694863
31
0
0
ARC
5
1D4
100
AcDbEntity
8
CUTOUTS
100
AcDbCircle
10
-4.3125000000000071
20
4.0350749476948593
30
0
40
0.50000000000000711
210
0
220
0
230
1
100
AcDbArc
50
180
51
269.99999999999989
0
LINE
5
1D5
100
AcDbEntity
8
CUTOUTS
100
AcDbLine
10
8.6875
20
3.5350749476948562
30
0
11
-4.312500000000008
21
3.5350749476948522
31
0
0
LINE
5
1D6
100
AcDbEntity
8
CUTOUTS
100
AcDbLine
10
14.237499999999997
20
4.0350749476948593
30
0
11
14.237499999999997
21
17.035074947694863
31
0
0
ARC
5
1D7
100
AcDbEntity
8
CUTOUTS
100
AcDbCircle
10
14.737500000000004
20
17.035074947694863
30
0
40
0.50000000000000711
210
0
220
-0
230
1
100
AcDbArc
50
90
51
180
0
LINE
5
1D8
100
AcDbEntity
8
CUTOUTS
100
AcDbLine
10
14.737500000000004
20
17.53507494769487
30
0
11
27.737500000000015
21
17.53507494769487
31
0
0
ARC
5
1D9
100
AcDbEntity
8
CUTOUTS
100
AcDbCircle
10
27.737500000000015
20
17.035074947694863
30
0
40
0.50000000000000711
210
0
220
-0
230
1
100
AcDbArc
50
0
51
90
0
LINE
5
1DA
100
AcDbEntity
8
CUTOUTS
100
AcDbLine
10
28.237500000000022
20
17.035074947694863
30
0
11
28.237500000000018
21
4.0350749476948593
31
0
0
ARC
5
1DB
100
AcDbEntity
8
CUTOUTS
100
AcDbCircle
10
27.737500000000015
20
4.0350749476948593
30
0
40
0.50000000000000322
210
-0
220
0
230
1
100
AcDbArc
50
-90
51
0
0
LINE
5
1DC
100
AcDbEntity
8
CUTOUTS
100
AcDbLine
10
27.737500000000015
20
3.5350749476948562
30
0
11
14.737500000000004
21
3.5350749476948522
31
0
0
ARC
5
1DD
100
AcDbEntity
8
CUTOUTS
100
AcDbCircle
10
14.737500000000004
20
4.0350749476948593
30
0
40
0.50000000000000711
210
0
220
0
230
1
100
AcDbArc
50
180
51
270
0
ARC
5
1DE
100
AcDbEntity
8
CUTOUTS
100
AcDbCircle
10
46.787499999999994
20
17.035074947694863
30
0
40
0.50000000000000711
210
0
220
-0
230
1
100
AcDbArc
50
0
51
90
0
LINE
5
1DF
100
AcDbEntity
8
CUTOUTS
100
AcDbLine
10
33.78749999999998
20
17.53507494769487
30
0
11
46.787499999999994
21
17.53507494769487
31
0
0
ARC
5
1E0
100
AcDbEntity
8
CUTOUTS
100
AcDbCircle
10
33.78749999999998
20
17.035074947694863
30
0
40
0.50000000000000711
210
0
220
-0
230
1
100
AcDbArc
50
90
51
180
0
LINE
5
1E1
100
AcDbEntity
8
CUTOUTS
100
AcDbLine
10
33.287500000000009
20
4.0350749476948593
30
0
11
33.28749999999998
21
17.035074947694863
31
0
0
ARC
5
1E2
100
AcDbEntity
8
CUTOUTS
100
AcDbCircle
10
33.78749999999998
20
4.0350749476948593
30
0
40
0.49999999999997158
210
0
220
0
230
1
100
AcDbArc
50
180
51
270
0
LINE
5
1E3
100
AcDbEntity
8
CUTOUTS
100
AcDbLine
10
46.787499999999994
20
3.5350749476948562
30
0
11
33.78749999999998
21
3.5350749476948877
31
0
0
ARC
5
1E4
100
AcDbEntity
8
CUTOUTS
100
AcDbCircle
10
46.787499999999994
20
4.0350749476948593
30
0
40
0.50000000000000322
210
-0
220
0
230
1
100
AcDbArc
50
-90
51
0
0
LINE
5
1E5
100
AcDbEntity
8
CUTOUTS
100
AcDbLine
10
47.287499999999994
20
17.035074947694863
30
0
11
47.287499999999994
21
4.0350749476948593
31
0
0
ARC
5
1E6
100
AcDbEntity
8
CUTOUTS
100
AcDbCircle
10
57.599999999999994
20
4.0350749476948593
30
0
40
0.50000000000000711
210
0
220
0
230
1
100
AcDbArc
50
180
51
270
0
LINE
5
1E7
100
AcDbEntity
8
CUTOUTS
100
AcDbLine
10
70.600000000000009
20
3.5350749476948562
30
0
11
57.599999999999994
21
3.5350749476948522
31
0
0
ARC
5
1E8
100
AcDbEntity
8
CUTOUTS
100
AcDbCircle
10
70.600000000000009
20
4.0350749476948593
30
0
40
0.50000000000000322
210
-0
220
0
230
1
100
AcDbArc
50
-90
51
0
0
LINE
5
1E9
100
AcDbEntity
8
CUTOUTS
100
AcDbLine
10
71.100000000000009
20
17.035074947694863
30
0
11
71.100000000000009
21
4.0350749476948593
31
0
0
ARC
5
1EA
100
AcDbEntity
8
CUTOUTS
100
AcDbCircle
10
70.600000000000009
20
17.035074947694863
30
0
40
0.50000000000000711
210
0
220
-0
230
1
100
AcDbArc
50
0
51
90
0
LINE
5
1EB
100
AcDbEntity
8
CUTOUTS
100
AcDbLine
10
57.599999999999994
20
17.53507494769487
30
0
11
70.600000000000009
21
17.53507494769487
31
0
0
ARC
5
1EC
100
AcDbEntity
8
CUTOUTS
100
AcDbCircle
10
57.599999999999994
20
17.035074947694863
30
0
40
0.50000000000000711
210
0
220
-0
230
1
100
AcDbArc
50
90
51
180
0
LINE
5
1ED
100
AcDbEntity
8
CUTOUTS
100
AcDbLine
10
57.099999999999994
20
4.0350749476948593
30
0
11
57.099999999999994
21
17.035074947694863
31
0
0
ARC
5
1EE
100
AcDbEntity
8
CUTOUTS
100
AcDbCircle
10
99.175000000000011
20
17.035074947694863
30
0
40
0.50000000000000711
210
0
220
-0
230
1
100
AcDbArc
50
0
51
90
0
LINE
5
1EF
100
AcDbEntity
8
CUTOUTS
100
AcDbLine
10
86.174999999999997
20
17.53507494769487
30
0
11
99.175000000000011
21
17.53507494769487
31
0
0
ARC
5
1F0
100
AcDbEntity
8
CUTOUTS
100
AcDbCircle
10
86.174999999999997
20
17.035074947694863
30
0
40
0.50000000000000711
210
0
220
-0
230
1
100
AcDbArc
50
90
51
180
0
LINE
5
1F1
100
AcDbEntity
8
CUTOUTS
100
AcDbLine
10
85.674999999999983
20
4.0350749476948593
30
0
11
85.674999999999983
21
17.035074947694863
31
0
0
ARC
5
1F2
100
AcDbEntity
8
CUTOUTS
100
AcDbCircle
10
86.174999999999997
20
4.0350749476948593
30
0
40
0.50000000000000711
210
0
220
0
230
1
100
AcDbArc
50
180
51
270
0
LINE
5
1F3
100
AcDbEntity
8
CUTOUTS
100
AcDbLine
10
99.175000000000011
20
3.5350749476948562
30
0
11
86.174999999999997
21
3.5350749476948522
31
0
0
ARC
5
1F4
100
AcDbEntity
8
CUTOUTS
100
AcDbCircle
10
99.175000000000011
20
4.0350749476948593
30
0
40
0.50000000000000322
210
-0
220
0
230
1
100
AcDbArc
50
-90
51
0
0
LINE
5
1F5
100
AcDbEntity
8
CUTOUTS
100
AcDbLine
10
99.675000000000011
20
17.035074947694863
30
0
11
99.675000000000011
21
4.0350749476948593
31
0
0
ARC
5
1F6
100
AcDbEntity
8
CUTOUTS
100
AcDbCircle
10
109.98750000000001
20
4.0350749476948593
30
0
40
0.50000000000000711
210
0
220
0
230
1
100
AcDbArc
50
180
51
270
0
LINE
5
1F7
100
AcDbEntity
8
CUTOUTS
100
AcDbLine
10
122.98749999999998
20
3.5350749476948562
30
0
11
109.98750000000001
21
3.5350749476948522
31
0
0
ARC
5
1F8
100
AcDbEntity
8
CUTOUTS
100
AcDbCircle
10
122.98749999999998
20
4.0350749476948593
30
0
40
0.50000000000000322
210
-0
220
0
230
1
100
AcDbArc
50
-90
51
0
0
LINE
5
1F9
100
AcDbEntity
8
CUTOUTS
100
AcDbLine
10
123.48749999999998
20
17.035074947694863
30
0
11
123.48749999999998
21
4.0350749476948593
31
0
0
ARC
5
1FA
100
AcDbEntity
8
CUTOUTS
100
AcDbCircle
10
122.98749999999998
20
17.035074947694863
30
0
40
0.50000000000000711
210
0
220
-0
230
1
100
AcDbArc
50
0
51
90
0
LINE
5
1FB
100
AcDbEntity
8
CUTOUTS
100
AcDbLine
10
109.98750000000001
20
17.53507494769487
30
0
11
122.98749999999998
21
17.53507494769487
31
0
0
ARC
5
1FC
100
AcDbEntity
8
CUTOUTS
100
AcDbCircle
10
109.98750000000001
20
17.035074947694863
30
0
40
0.50000000000000711
210
0
220
-0
230
1
100
AcDbArc
50
90
51
180
0
LINE
5
1FD
100
AcDbEntity
8
CUTOUTS
100
AcDbLine
10
109.48750000000001
20
4.0350749476948593
30
0
11
109.48750000000001
21
17.035074947694863
31
0
0
LINE
5
1FE
100
AcDbEntity
8
CUTOUTS
100
AcDbLine
10
128.53750000000002
20
4.0350749476948593
30
0
11
128.53750000000002
21
17.035074947694863
31
0
0
ARC
5
1FF
100
AcDbEntity
8
CUTOUTS
100
AcDbCircle
10
129.03750000000002
20
17.035074947694863
30
0
40
0.50000000000000711
210
0
220
-0
230
1
100
AcDbArc
50
90
51
180
0
LINE
5
200
100
AcDbEntity
8
CUTOUTS
100
AcDbLine
10
129.03750000000002
20
17.53507494769487
30
0
11
142.03749999999999
21
17.53507494769487
31
0
0
ARC
5
201
100
AcDbEntity
8
CUTOUTS
100
AcDbCircle
10
142.03749999999999
20
17.035074947694863
30
0
40
0.50000000000000711
210
0
220
-0
230
1
100
AcDbArc
50
0
51
90
0
LINE
5
202
100
AcDbEntity
8
CUTOUTS
100
AcDbLine
10
142.53749999999999
20
17.035074947694863
30
0
11
142.53749999999999
21
4.0350749476948593
31
0
0
ARC
5
203
100
AcDbEntity
8
CUTOUTS
100
AcDbCircle
10
142.03749999999999
20
4.0350749476948593
30
0
40
0.50000000000000322
210
-0
220
0
230
1
100
AcDbArc
50
-90
51
0
0
LINE
5
204
100
AcDbEntity
8
CUTOUTS
100
AcDbLine
10
142.03749999999999
20
3.5350749476948562
30
0
11
129.03750000000002
21
3.5350749476948522
31
0
0
ARC
5
205
100
AcDbEntity
8
CUTOUTS
100
AcDbCircle
10
129.03750000000002
20
4.0350749476948593
30
0
40
0.50000000000000711
210
0
220
0
230
1
100
AcDbArc
50
180
51
270
0
ARC
5
206
100
AcDbEntity
8
CUTOUTS
100
AcDbCircle
10
161.08749999999992
20
4.0350749476948593
30
0
40
0.50000000000000322
210
-0
220
0
230
1
100
AcDbArc
50
-90
51
0
0
LINE
5
207
100
AcDbEntity
8
CUTOUTS
100
AcDbLine
10
161.58749999999998
20
17.035074947694863
30
0
11
161.58749999999995
21
4.0350749476948593
31
0
0
ARC
5
208
100
AcDbEntity
8
CUTOUTS
100
AcDbCircle
10
161.08749999999992
20
17.035074947694863
30
0
40
0.50000000000004263
210
0
220
-0
230
1
100
AcDbArc
50
0
51
90
0
LINE
5
209
100
AcDbEntity
8
CUTOUTS
100
AcDbLine
10
148.08749999999998
20
17.53507494769487
30
0
11
161.08749999999992
21
17.535074947694905
31
0
0
ARC
5
20A
100
AcDbEntity
8
CUTOUTS
100
AcDbCircle
10
148.08749999999998
20
17.035074947694863
30
0
40
0.50000000000000711
210
0
220
-0
230
1
100
AcDbArc
50
90
51
180
0
LINE
5
20B
100
AcDbEntity
8
CUTOUTS
100
AcDbLine
10
147.58749999999995
20
4.0350749476948593
30
0
11
147.58749999999995
21
17.035074947694863
31
0
0
ARC
5
20C
100
AcDbEntity
8
CUTOUTS
100
AcDbCircle
10
148.08749999999998
20
4.0350749476948593
30
0
40
0.50000000000000711
210
0
220
0
230
1
100
AcDbArc
50
180
51
270
0
LINE
5
20D
100
AcDbEntity
8
CUTOUTS
100
AcDbLine
10
161.08749999999992
20
3.5350749476948562
30
0
11
148.08749999999998
21
3.5350749476948522
31
0
0
LINE
5
20E
100
AcDbEntity
8
CUTOUTS
100
AcDbLine
10
-154.83125000000004
20
-15.014925052305138
30
0
11
-154.83125000000001
21
-2.0149250523051299
31
0
0
ARC
5
20F
100
AcDbEntity
8
CUTOUTS
100
AcDbCircle
10
-154.33125000000001
20
-2.0149250523051307
30
0
40
0.49999999999999628
210
0
220
-0
230
1
100
AcDbArc
50
90
51
180
0
LINE
5
210
100
AcDbEntity
8
CUTOUTS
100
AcDbLine
10
-154.33125000000001
20
-1.5149250523051347
30
0
11
-141.33125000000004
21
-1.5149250523051416
31
0
0
ARC
5
211
100
AcDbEntity
8
CUTOUTS
100
AcDbCircle
10
-141.33125000000004
20
-2.0149250523051307
30
0
40
0.49999999999998934
210
0
220
-0
230
1
100
AcDbArc
50
0
51
90
0
LINE
5
212
100
AcDbEntity
8
CUTOUTS
100
AcDbLine
10
-140.83125000000004
20
-2.0149250523051307
30
0
11
-140.83125000000001
21
-15.014925052305138
31
0
0
ARC
5
213
100
AcDbEntity
8
CUTOUTS
100
AcDbCircle
10
-141.33125000000004
20
-15.014925052305138
30
0
40
0.49999999999999822
210
-0
220
0
230
1
100
AcDbArc
50
-90
51
0
0
LINE
5
214
100
AcDbEntity
8
CUTOUTS
100
AcDbLine
10
-141.33125000000004
20
-15.514925052305134
30
0
11
-154.33125000000001
21
-15.514925052305145
31
0
0
ARC
5
215
100
AcDbEntity
8
CUTOUTS
100
AcDbCircle
10
-154.33125000000001
20
-15.014925052305138
30
0
40
0.50000000000000711
210
0
220
0
230
1
100
AcDbArc
50
180
51
270
0
LINE
5
216
100
AcDbEntity
8
CUTOUTS
100
AcDbLine
10
-115.13750000000002
20
-15.514925052305134
30
0
11
-128.13750000000002
21
-15.514925052305145
31
0
0
ARC
5
217
100
AcDbEntity
8
CUTOUTS
100
AcDbCircle
10
-128.13750000000002
20
-15.014925052305138
30
0
40
0.50000000000000711
210
0
220
0
230
1
100
AcDbArc
50
180
51
270
0
LINE
5
218
100
AcDbEntity
8
CUTOUTS
100
AcDbLine
10
-128.63750000000005
20
-15.014925052305138
30
0
11
-128.63750000000002
21
-2.0149250523051299
31
0
0
ARC
5
219
100
AcDbEntity
8
CUTOUTS
100
AcDbCircle
10
-128.13750000000002
20
-2.0149250523051307
30
0
40
0.49999999999999628
210
0
220
-0
230
1
100
AcDbArc
50
90
51
180
0
LINE
5
21A
100
AcDbEntity
8
CUTOUTS
100
AcDbLine
10
-128.13750000000002
20
-1.5149250523051347
30
0
11
-115.13750000000002
21
-1.5149250523051416
31
0
0
ARC
5
21B
100
AcDbEntity
8
CUTOUTS
100
AcDbCircle
10
-115.13750000000002
20
-2.0149250523051307
30
0
40
0.49999999999998934
210
0
220
-0
230
1
100
AcDbArc
50
0
51
90
0
LINE
5
21C
100
AcDbEntity
8
CUTOUTS
100
AcDbLine
10
-114.63750000000003
20
-2.0149250523051307
30
0
11
-114.63750000000002
21
-15.014925052305138
31
0
0
ARC
5
21D
100
AcDbEntity
8
CUTOUTS
100
AcDbCircle
10
-115.13750000000002
20
-15.014925052305138
30
0
40
0.49999999999999822
210
-0
220
0
230
1
100
AcDbArc
50
-90
51
0
0
LINE
5
21E
100
AcDbEntity
8
CUTOUTS
100
AcDbLine
10
-109.58750000000001
20
-15.014925052305138
30
0
11
-109.58750000000001
21
-2.0149250523051299
31
0
0
ARC
5
21F
100
AcDbEntity
8
CUTOUTS
100
AcDbCircle
10
-109.08750000000001
20
-2.0149250523051307
30
0
40
0.49999999999999628
210
0
220
-0
230
1
100
AcDbArc
50
90
51
180
0
LINE
5
220
100
AcDbEntity
8
CUTOUTS
100
AcDbLine
10
-109.08750000000001
20
-1.5149250523051347
30
0
11
-96.087500000000034
21
-1.5149250523051416
31
0
0
ARC
5
221
100
AcDbEntity
8
CUTOUTS
100
AcDbCircle
10
-96.087500000000034
20
-2.0149250523051307
30
0
40
0.49999999999998934
210
0
220
-0
230
1
100
AcDbArc
50
0
51
90
0
LINE
5
222
100
AcDbEntity
8
CUTOUTS
100
AcDbLine
10
-95.587500000000048
20
-2.0149250523051307
30
0
11
-95.587500000000034
21
-15.014925052305138
31
0
0
ARC
5
223
100
AcDbEntity
8
CUTOUTS
100
AcDbCircle
10
-96.087500000000034
20
-15.014925052305138
30
0
40
0.49999999999999822
210
-0
220
0
230
1
100
AcDbArc
50
-90
51
0
0
LINE
5
224
100
AcDbEntity
8
CUTOUTS
100
AcDbLine
10
-96.087500000000034
20
-15.514925052305134
30
0
11
-109.08750000000001
21
-15.514925052305127
31
0
0
ARC
5
225
100
AcDbEntity
8
CUTOUTS
100
AcDbCircle
10
-109.08750000000001
20
-15.014925052305138
30
0
40
0.49999999999998934
210
0
220
0
230
1
100
AcDbArc
50
180
51
270
0
ARC
5
226
100
AcDbEntity
8
CUTOUTS
100
AcDbCircle
10
-90.037500000000023
20
-2.0149250523051307
30
0
40
0.49999999999999628
210
0
220
-0
230
1
100
AcDbArc
50
90
51
180
0
LINE
5
227
100
AcDbEntity
8
CUTOUTS
100
AcDbLine
10
-90.537500000000009
20
-15.014925052305138
30
0
11
-90.537500000000009
21
-2.0149250523051299
31
0
0
ARC
5
228
100
AcDbEntity
8
CUTOUTS
100
AcDbCircle
10
-90.037500000000023
20
-15.014925052305138
30
0
40
0.49999999999998934
210
0
220
0
230
1
100
AcDbArc
50
180
51
270
0
LINE
5
229
100
AcDbEntity
8
CUTOUTS
100
AcDbLine
10
-77.037499999999994
20
-15.514925052305134
30
0
11
-90.037500000000023
21
-15.514925052305127
31
0
0
ARC
5
22A
100
AcDbEntity
8
CUTOUTS
100
AcDbCircle
10
-77.037499999999994
20
-15.014925052305138
30
0
40
0.49999999999999822
210
-0
220
0
230
1
100
AcDbArc
50
-90
51
0
0
LINE
5
22B
100
AcDbEntity
8
CUTOUTS
100
AcDbLine
10
-76.537500000000009
20
-2.0149250523051307
30
0
11
-76.537499999999994
21
-15.014925052305138
31
0
0
ARC
5
22C
100
AcDbEntity
8
CUTOUTS
100
AcDbCircle
10
-77.037499999999994
20
-2.0149250523051307
30
0
40
0.49999999999998934
210
0
220
-0
230
1
100
AcDbArc
50
0
51
90
0
LINE
5
22D
100
AcDbEntity
8
CUTOUTS
100
AcDbLine
10
-90.037500000000023
20
-1.5149250523051347
30
0
11
-77.037499999999994
21
-1.5149250523051416
31
0
0
ARC
5
22E
100
AcDbEntity
8
CUTOUTS
100
AcDbCircle
10
-70.987500000000011
20
-15.014925052305138
30
0
40
0.49999999999998934
210
0
220
0
230
1
100
AcDbArc
50
180
51
270
0
LINE
5
22F
100
AcDbEntity
8
CUTOUTS
100
AcDbLine
10
-57.987499999999997
20
-15.514925052305134
30
0
11
-70.987500000000011
21
-15.514925052305127
31
0
0
ARC
5
230
100
AcDbEntity
8
CUTOUTS
100
AcDbCircle
10
-57.987499999999997
20
-15.014925052305138
30
0
40
0.49999999999999822
210
-0
220
0
230
1
100
AcDbArc
50
-90
51
0
0
LINE
5
231
100
AcDbEntity
8
CUTOUTS
100
AcDbLine
10
-57.487499999999997
20
-2.0149250523051307
30
0
11
-57.487500000000004
21
-15.014925052305138
31
0
0
ARC
5
232
100
AcDbEntity
8
CUTOUTS
100
AcDbCircle
10
-57.987499999999997
20
-2.0149250523051307
30
0
40
0.50000000000000711
210
0
220
-0
230
1
100
AcDbArc
50
0
51
90
0
LINE
5
233
100
AcDbEntity
8
CUTOUTS
100
AcDbLine
10
-70.987500000000011
20
-1.5149250523051347
30
0
11
-57.987499999999997
21
-1.5149250523051239
31
0
0
ARC
5
234
100
AcDbEntity
8
CUTOUTS
100
AcDbCircle
10
-70.987500000000011
20
-2.0149250523051307
30
0
40
0.49999999999999628
210
0
220
-0
230
1
100
AcDbArc
50
90
51
180
0
LINE
5
235
100
AcDbEntity
8
CUTOUTS
100
AcDbLine
10
-71.487499999999997
20
-15.014925052305138
30
0
11
-71.487500000000011
21
-2.0149250523051299
31
0
0
LINE
5
236
100
AcDbEntity
8
CUTOUTS
100
AcDbLine
10
-51.9375
20
-1.5149250523051347
30
0
11
-38.937500000000007
21
-1.5149250523051239
31
0
0
ARC
5
237
100
AcDbEntity
8
CUTOUTS
100
AcDbCircle
10
-38.937500000000007
20
-2.0149250523051307
30
0
40
0.50000000000000711
210
0
220
-0
230
1
100
AcDbArc
50
0
51
90
0
LINE
5
238
100
AcDbEntity
8
CUTOUTS
100
AcDbLine
10
-38.4375
20
-2.0149250523051307
30
0
11
-38.437500000000007
21
-15.014925052305138
31
0
0
ARC
5
239
100
AcDbEntity
8
CUTOUTS
100
AcDbCircle
10
-38.937500000000007
20
-15.014925052305138
30
0
40
0.49999999999999822
210
-0
220
0
230
1
100
AcDbArc
50
-90
51
0
0
LINE
5
23A
100
AcDbEntity
8
CUTOUTS
100
AcDbLine
10
-38.937500000000007
20
-15.514925052305134
30
0
11
-51.9375
21
-15.514925052305145
31
0
0
ARC
5
23B
100
AcDbEntity
8
CUTOUTS
100
AcDbCircle
10
-51.9375
20
-15.014925052305138
30
0
40
0.50000000000000711
210
0
220
0
230
1
100
AcDbArc
50
180
51
270
0
LINE
5
23C
100
AcDbEntity
8
CUTOUTS
100
AcDbLine
10
-52.4375
20
-15.014925052305138
30
0
11
-52.437499999999993
21
-2.0149250523051299
31
0
0
ARC
5
23D
100
AcDbEntity
8
CUTOUTS
100
AcDbCircle
10
-51.9375
20
-2.0149250523051307
30
0
40
0.49999999999999628
210
0
220
-0
230
1
100
AcDbArc
50
90
51
180
0
LINE
5
23E
100
AcDbEntity
8
CUTOUTS
100
AcDbLine
10
-33.387499999999989
20
-15.014925052305138
30
0
11
-33.387499999999982
21
-2.0149250523051299
31
0
0
ARC
5
23F
100
AcDbEntity
8
CUTOUTS
100
AcDbCircle
10
-32.887499999999989
20
-2.0149250523051307
30
0
40
0.49999999999999628
210
0
220
-0
230
1
100
AcDbArc
50
90
51
180
0
LINE
5
240
100
AcDbEntity
8
CUTOUTS
100
AcDbLine
10
-32.887499999999989
20
-1.5149250523051347
30
0
11
-19.887499999999999
21
-1.5149250523051239
31
0
0
ARC
5
241
100
AcDbEntity
8
CUTOUTS
100
AcDbCircle
10
-19.887499999999999
20
-2.0149250523051307
30
0
40
0.50000000000000711
210
0
220
-0
230
1
100
AcDbArc
50
0
51
90
0
LINE
5
242
100
AcDbEntity
8
CUTOUTS
100
AcDbLine
10
-19.387499999999992
20
-2.0149250523051307
30
0
11
-19.387500000000003
21
-15.014925052305138
31
0
0
ARC
5
243
100
AcDbEntity
8
CUTOUTS
100
AcDbCircle
10
-19.887499999999999
20
-15.014925052305138
30
0
40
0.49999999999999822
210
-0
220
0
230
1
100
AcDbArc
50
-90
51
0
0
LINE
5
244
100
AcDbEntity
8
CUTOUTS
100
AcDbLine
10
-19.887499999999999
20
-15.514925052305134
30
0
11
-32.887499999999989
21
-15.514925052305145
31
0
0
ARC
5
245
100
AcDbEntity
8
CUTOUTS
100
AcDbCircle
10
-32.887499999999989
20
-15.014925052305138
30
0
40
0.50000000000000711
210
0
220
0
230
1
100
AcDbArc
50
180
51
270
0
ARC
5
246
100
AcDbEntity
8
CUTOUTS
100
AcDbCircle
10
-13.837500000000013
20
-15.014925052305138
30
0
40
0.50000000000000711
210
0
220
0
230
1
100
AcDbArc
50
180
51
270
0
LINE
5
247
100
AcDbEntity
8
CUTOUTS
100
AcDbLine
10
-0.83750000000000568
20
-15.514925052305134
30
0
11
-13.837500000000013
21
-15.514925052305145
31
0
0
ARC
5
248
100
AcDbEntity
8
CUTOUTS
100
AcDbCircle
10
-0.83750000000000568
20
-15.014925052305138
30
0
40
0.49999999999999822
210
0
220
0
230
1
100
AcDbArc
50
-90
51
0
0
LINE
5
249
100
AcDbEntity
8
CUTOUTS
100
AcDbLine
10
-0.33749999999999869
20
-2.0149250523051307
30
0
11
-0.33750000000000752
21
-15.014925052305138
31
0
0
ARC
5
24A
100
AcDbEntity
8
CUTOUTS
100
AcDbCircle
10
-0.83750000000000568
20
-2.0149250523051307
30
0
40
0.50000000000000699
210
0
220
-0
230
1
100
AcDbArc
50
0
51
90.000000000000099
0
LINE
5
24B
100
AcDbEntity
8
CUTOUTS
100
AcDbLine
10
-13.837500000000013
20
-1.5149250523051347
30
0
11
-0.83750000000000657
21
-1.5149250523051239
31
0
0
ARC
5
24C
100
AcDbEntity
8
CUTOUTS
100
AcDbCircle
10
-13.837500000000013
20
-2.0149250523051307
30
0
40
0.49999999999999628
210
0
220
-0
230
1
100
AcDbArc
50
90
51
180
0
LINE
5
24D
100
AcDbEntity
8
CUTOUTS
100
AcDbLine
10
-14.33750000000002
20
-15.014925052305138
30
0
11
-14.337500000000009
21
-2.0149250523051299
31
0
0
ARC
5
24E
100
AcDbEntity
8
CUTOUTS
100
AcDbCircle
10
5.2124999999999977
20
-2.0149250523051307
30
0
40
0.49999999999999628
210
0
220
-0
230
1
100
AcDbArc
50
90
51
180
0
LINE
5
24F
100
AcDbEntity
8
CUTOUTS
100
AcDbLine
10
4.7124999999999906
20
-15.014925052305138
30
0
11
4.7125000000000021
21
-2.0149250523051299
31
0
0
ARC
5
250
100
AcDbEntity
8
CUTOUTS
100
AcDbCircle
10
5.2124999999999977
20
-15.014925052305138
30
0
40
0.50000000000000711
210
0
220
0
230
1
100
AcDbArc
50
180
51
270
0
LINE
5
251
100
AcDbEntity
8
CUTOUTS
100
AcDbLine
10
18.212500000000006
20
-15.514925052305134
30
0
11
5.2124999999999977
21
-15.514925052305145
31
0
0
ARC
5
252
100
AcDbEntity
8
CUTOUTS
100
AcDbCircle
10
18.212500000000006
20
-15.014925052305138
30
0
40
0.49999999999999822
210
-0
220
0
230
1
100
AcDbArc
50
-90
51
0
0
LINE
5
253
100
AcDbEntity
8
CUTOUTS
100
AcDbLine
10
18.712500000000013
20
-2.0149250523051307
30
0
11
18.712500000000002
21
-15.014925052305138
31
0
0
ARC
5
254
100
AcDbEntity
8
CUTOUTS
100
AcDbCircle
10
18.212500000000006
20
-2.0149250523051307
30
0
40
0.50000000000000711
210
0
220
-0
230
1
100
AcDbArc
50
0
51
90
0
LINE
5
255
100
AcDbEntity
8
CUTOUTS
100
AcDbLine
10
5.2124999999999977
20
-1.5149250523051347
30
0
11
18.212500000000006
21
-1.5149250523051239
31
0
0
ARC
5
256
100
AcDbEntity
8
CUTOUTS
100
AcDbCircle
10
37.262499999999989
20
-2.0149250523051307
30
0
40
0.50000000000000711
210
0
220
-0
230
1
100
AcDbArc
50
0
51
90
0
LINE
5
257
100
AcDbEntity
8
CUTOUTS
100
AcDbLine
10
24.262499999999978
20
-1.5149250523051347
30
0
11
37.262499999999989
21
-1.5149250523051239
31
0
0
ARC
5
258
100
AcDbEntity
8
CUTOUTS
100
AcDbCircle
10
24.262499999999978
20
-2.0149250523051307
30
0
40
0.49999999999999628
210
0
220
-0
230
1
100
AcDbArc
50
90
51
180
0
LINE
5
259
100
AcDbEntity
8
CUTOUTS
100
AcDbLine
10
23.762499999999971
20
-15.014925052305138
30
0
11
23.762499999999982
21
-2.0149250523051299
31
0
0
ARC
5
25A
100
AcDbEntity
8
CUTOUTS
100
AcDbCircle
10
24.262499999999978
20
-15.014925052305138
30
0
40
0.50000000000000711
210
0
220
0
230
1
100
AcDbArc
50
180
51
270
0
LINE
5
25B
100
AcDbEntity
8
CUTOUTS
100
AcDbLine
10
37.262499999999989
20
-15.514925052305134
30
0
11
24.262499999999978
21
-15.514925052305145
31
0
0
ARC
5
25C
100
AcDbEntity
8
CUTOUTS
100
AcDbCircle
10
37.262499999999989
20
-15.014925052305138
30
0
40
0.49999999999999822
210
-0
220
0
230
1
100
AcDbArc
50
-90
51
0
0
LINE
5
25D
100
AcDbEntity
8
CUTOUTS
100
AcDbLine
10
37.762499999999989
20
-2.0149250523051307
30
0
11
37.762499999999982
21
-15.014925052305138
31
0
0
ARC
5
25E
100
AcDbEntity
8
CUTOUTS
100
AcDbCircle
10
43.312499999999986
20
-15.014925052305138
30
0
40
0.49999999999997158
210
0
220
0
230
1
100
AcDbArc
50
180
51
270
0
LINE
5
25F
100
AcDbEntity
8
CUTOUTS
100
AcDbLine
10
56.3125
20
-15.514925052305134
30
0
11
43.312499999999986
21
-15.514925052305109
31
0
0
ARC
5
260
100
AcDbEntity
8
CUTOUTS
100
AcDbCircle
10
56.3125
20
-15.014925052305138
30
0
40
0.49999999999999822
210
-0
220
0
230
1
100
AcDbArc
50
-90
51
0
0
LINE
5
261
100
AcDbEntity
8
CUTOUTS
100
AcDbLine
10
56.8125
20
-2.0149250523051307
30
0
11
56.812499999999993
21
-15.014925052305138
31
0
0
ARC
5
262
100
AcDbEntity
8
CUTOUTS
100
AcDbCircle
10
56.3125
20
-2.0149250523051307
30
0
40
0.50000000000000711
210
0
220
-0
230
1
100
AcDbArc
50
0
51
90
0
LINE
5
263
100
AcDbEntity
8
CUTOUTS
100
AcDbLine
10
43.312499999999986
20
-1.5149250523051347
30
0
11
56.3125
21
-1.5149250523051239
31
0
0
ARC
5
264
100
AcDbEntity
8
CUTOUTS
100
AcDbCircle
10
43.312499999999986
20
-2.0149250523051307
30
0
40
0.49999999999999628
210
0
220
-0
230
1
100
AcDbArc
50
90
51
180
0
LINE
5
265
100
AcDbEntity
8
CUTOUTS
100
AcDbLine
10
42.812500000000014
20
-15.014925052305138
30
0
11
42.812499999999993
21
-2.0149250523051299
31
0
0
ARC
5
266
100
AcDbEntity
8
CUTOUTS
100
AcDbCircle
10
75.362500000000011
20
-15.014925052305138
30
0
40
0.49999999999999822
210
-0
220
0
230
1
100
AcDbArc
50
-90
51
0
0
LINE
5
267
100
AcDbEntity
8
CUTOUTS
100
AcDbLine
10
75.862500000000011
20
-2.0149250523051307
30
0
11
75.862500000000011
21
-15.014925052305138
31
0
0
ARC
5
268
100
AcDbEntity
8
CUTOUTS
100
AcDbCircle
10
75.362500000000011
20
-2.0149250523051307
30
0
40
0.50000000000000711
210
0
220
-0
230
1
100
AcDbArc
50
0
51
90
0
LINE
5
269
100
AcDbEntity
8
CUTOUTS
100
AcDbLine
10
62.362499999999997
20
-1.5149250523051347
30
0
11
75.362500000000011
21
-1.5149250523051239
31
0
0
ARC
5
26A
100
AcDbEntity
8
CUTOUTS
100
AcDbCircle
10
62.362499999999997
20
-2.0149250523051307
30
0
40
0.49999999999999628
210
0
220
-0
230
1
100
AcDbArc
50
90
51
180
0
LINE
5
26B
100
AcDbEntity
8
CUTOUTS
100
AcDbLine
10
61.862500000000026
20
-15.014925052305138
30
0
11
61.862500000000004
21
-2.0149250523051299
31
0
0
ARC
5
26C
100
AcDbEntity
8
CUTOUTS
100
AcDbCircle
10
62.362499999999997
20
-15.014925052305138
30
0
40
0.49999999999997158
210
0
220
0
230
1
100
AcDbArc
50
180
51
270
0
LINE
5
26D
100
AcDbEntity
8
CUTOUTS
100
AcDbLine
10
75.362500000000011
20
-15.514925052305134
30
0
11
62.362499999999997
21
-15.514925052305109
31
0
0
ARC
5
26E
100
AcDbEntity
8
CUTOUTS
100
AcDbCircle
10
109.98750000000001
20
-15.014925052305138
30
0
40
0.50000000000000711
210
0
220
0
230
1
100
AcDbArc
50
180
51
270
0
LINE
5
26F
100
AcDbEntity
8
CUTOUTS
100
AcDbLine
10
122.98749999999998
20
-15.514925052305134
30
0
11
109.98750000000001
21
-15.514925052305145
31
0
0
ARC
5
270
100
AcDbEntity
8
CUTOUTS
100
AcDbCircle
10
122.98749999999998
20
-15.014925052305138
30
0
40
0.49999999999999822
210
-0
220
0
230
1
100
AcDbArc
50
-90
51
0
0
LINE
5
271
100
AcDbEntity
8
CUTOUTS
100
AcDbLine
10
123.48749999999998
20
-2.0149250523051307
30
0
11
123.48749999999998
21
-15.014925052305138
31
0
0
ARC
5
272
100
AcDbEntity
8
CUTOUTS
100
AcDbCircle
10
122.98749999999998
20
-2.0149250523051307
30
0
40
0.50000000000000711
210
0
220
-0
230
1
100
AcDbArc
50
0
51
90
0
LINE
5
273
100
AcDbEntity
8
CUTOUTS
100
AcDbLine
10
109.98750000000001
20
-1.5149250523051347
30
0
11
122.98749999999998
21
-1.5149250523051239
31
0
0
ARC
5
274
100
AcDbEntity
8
CUTOUTS
100
AcDbCircle
10
109.98750000000001
20
-2.0149250523051307
30
0
40
0.49999999999999628
210
0
220
-0
230
1
100
AcDbArc
50
90
51
180
0
LINE
5
275
100
AcDbEntity
8
CUTOUTS
100
AcDbLine
10
109.48750000000001
20
-15.014925052305138
30
0
11
109.48750000000003
21
-2.0149250523051299
31
0
0
ARC
5
276
100
AcDbEntity
8
CUTOUTS
100
AcDbCircle
10
129.03750000000002
20
-2.0149250523051307
30
0
40
0.49999999999999628
210
0
220
-0
230
1
100
AcDbArc
50
90
51
180
0
LINE
5
277
100
AcDbEntity
8
CUTOUTS
100
AcDbLine
10
128.53750000000002
20
-15.014925052305138
30
0
11
128.53750000000002
21
-2.0149250523051299
31
0
0
ARC
5
278
100
AcDbEntity
8
CUTOUTS
100
AcDbCircle
10
129.03750000000002
20
-15.014925052305138
30
0
40
0.50000000000000711
210
0
220
0
230
1
100
AcDbArc
50
180
51
270
0
LINE
5
279
100
AcDbEntity
8
CUTOUTS
100
AcDbLine
10
142.03749999999999
20
-15.514925052305134
30
0
11
129.03750000000002
21
-15.514925052305145
31
0
0
ARC
5
27A
100
AcDbEntity
8
CUTOUTS
100
AcDbCircle
10
142.03749999999999
20
-15.014925052305138
30
0
40
0.49999999999999822
210
-0
220
0
230
1
100
AcDbArc
50
-90
51
0
0
LINE
5
27B
100
AcDbEntity
8
CUTOUTS
100
AcDbLine
10
142.53749999999999
20
-2.0149250523051307
30
0
11
142.53749999999999
21
-15.014925052305138
31
0
0
ARC
5
27C
100
AcDbEntity
8
CUTOUTS
100
AcDbCircle
10
142.03749999999999
20
-2.0149250523051307
30
0
40
0.50000000000000711
210
0
220
-0
230
1
100
AcDbArc
50
0
51
90
0
LINE
5
27D
100
AcDbEntity
8
CUTOUTS
100
AcDbLine
10
129.03750000000002
20
-1.5149250523051347
30
0
11
142.03749999999999
21
-1.5149250523051239
31
0
0
ARC
5
27E
100
AcDbEntity
8
CUTOUTS
100
AcDbCircle
10
148.08749999999998
20
-2.0149250523051307
30
0
40
0.49999999999999628
210
0
220
-0
230
1
100
AcDbArc
50
90
51
180
0
LINE
5
27F
100
AcDbEntity
8
CUTOUTS
100
AcDbLine
10
147.58749999999995
20
-15.014925052305138
30
0
11
147.58749999999998
21
-2.0149250523051299
31
0
0
ARC
5
280
100
AcDbEntity
8
CUTOUTS
100
AcDbCircle
10
148.08749999999998
20
-15.014925052305138
30
0
40
0.50000000000000711
210
0
220
0
230
1
100
AcDbArc
50
180
51
270
0
LINE
5
281
100
AcDbEntity
8
CUTOUTS
100
AcDbLine
10
161.08749999999992
20
-15.514925052305134
30
0
11
148.08749999999998
21
-15.514925052305145
31
0
0
ARC
5
282
100
AcDbEntity
8
CUTOUTS
100
AcDbCircle
10
161.08749999999992
20
-15.014925052305138
30
0
40
0.49999999999999822
210
-0
220
0
230
1
100
AcDbArc
50
-90
51
0
0
LINE
5
283
100
AcDbEntity
8
CUTOUTS
100
AcDbLine
10
161.58749999999998
20
-2.0149250523051307
30
0
11
161.58749999999995
21
-15.014925052305138
31
0
0
ARC
5
284
100
AcDbEntity
8
CUTOUTS
100
AcDbCircle
10
161.08749999999992
20
-2.0149250523051307
30
0
40
0.50000000000004263
210
0
220
-0
230
1
100
AcDbArc
50
0
51
90
0
LINE
5
285
100
AcDbEntity
8
CUTOUTS
100
AcDbLine
10
148.08749999999998
20
-1.5149250523051347
30
0
11
161.08749999999992
21
-1.5149250523050883
31
0
0
ARC
5
286
100
AcDbEntity
8
CUTOUTS
100
AcDbCircle
10
99.175000000000011
20
-19.777425052305148
30
0
40
0.499999999999996
210
-0
220
0
230
1
100
AcDbArc
50
-90
51
0
0
LINE
5
287
100
AcDbEntity
8
CUTOUTS
100
AcDbLine
10
99.675000000000011
20
-6.7774250523051371
30
0
11
99.674999999999997
21
-19.777425052305148
31
0
0
ARC
5
288
100
AcDbEntity
8
CUTOUTS
100
AcDbCircle
10
99.175000000000011
20
-6.7774250523051371
30
0
40
0.50000000000000711
210
0
220
-0
230
1
100
AcDbArc
50
0
51
90
0
LINE
5
289
100
AcDbEntity
8
CUTOUTS
100
AcDbLine
10
86.174999999999997
20
-6.2774250523051318
30
0
11
99.175000000000011
21
-6.27742505230513
31
0
0
ARC
5
28A
100
AcDbEntity
8
CUTOUTS
100
AcDbCircle
10
86.174999999999997
20
-6.7774250523051371
30
0
40
0.50000000000000488
210
0
220
-0
230
1
100
AcDbArc
50
90
51
180
0
LINE
5
28B
100
AcDbEntity
8
CUTOUTS
100
AcDbLine
10
85.674999999999983
20
-19.777425052305148
30
0
11
85.674999999999983
21
-6.7774250523051371
31
0
0
ARC
5
28C
100
AcDbEntity
8
CUTOUTS
100
AcDbCircle
10
86.174999999999997
20
-19.777425052305148
30
0
40
0.50000000000000711
210
0
220
0
230
1
100
AcDbArc
50
180
51
270
0
LINE
5
28D
100
AcDbEntity
8
CUTOUTS
100
AcDbLine
10
99.175000000000011
20
-20.277425052305141
30
0
11
86.174999999999997
21
-20.277425052305151
31
0
0
ARC
5
28E
100
AcDbEntity
8
CUTOUTS
100
AcDbCircle
10
24.262499999999978
20
-34.064925052305114
30
0
40
0.50000000000000711
210
0
220
0
230
1
100
AcDbArc
50
180
51
270
0
LINE
5
28F
100
AcDbEntity
8
CUTOUTS
100
AcDbLine
10
37.262499999999989
20
-34.564925052305114
30
0
11
24.262499999999978
21
-34.564925052305128
31
0
0
ARC
5
290
100
AcDbEntity
8
CUTOUTS
100
AcDbCircle
10
37.262499999999989
20
-34.064925052305114
30
0
40
0.49999999999999822
210
-0
220
0
230
1
100
AcDbArc
50
-90
51
0
0
LINE
5
291
100
AcDbEntity
8
CUTOUTS
100
AcDbLine
10
37.762499999999989
20
-21.064925052305128
30
0
11
37.762499999999982
21
-34.064925052305114
31
0
0
ARC
5
292
100
AcDbEntity
8
CUTOUTS
100
AcDbCircle
10
37.262499999999989
20
-21.064925052305128
30
0
40
0.50000000000000711
210
0
220
-0
230
1
100
AcDbArc
50
0
51
90
0
LINE
5
293
100
AcDbEntity
8
CUTOUTS
100
AcDbLine
10
24.262499999999978
20
-20.564925052305124
30
0
11
37.262499999999989
21
-20.564925052305121
31
0
0
ARC
5
294
100
AcDbEntity
8
CUTOUTS
100
AcDbCircle
10
24.262499999999978
20
-21.064925052305128
30
0
40
0.50000000000000266
210
0
220
-0
230
1
100
AcDbArc
50
90
51
180
0
LINE
5
295
100
AcDbEntity
8
CUTOUTS
100
AcDbLine
10
23.762499999999971
20
-34.064925052305114
30
0
11
23.762499999999974
21
-21.064925052305128
31
0
0
ARC
5
296
100
AcDbEntity
8
CUTOUTS
100
AcDbCircle
10
43.312499999999986
20
-21.064925052305128
30
0
40
0.50000000000000266
210
0
220
-0
230
1
100
AcDbArc
50
90
51
180
0
LINE
5
297
100
AcDbEntity
8
CUTOUTS
100
AcDbLine
10
42.812500000000014
20
-34.064925052305114
30
0
11
42.812499999999986
21
-21.064925052305128
31
0
0
ARC
5
298
100
AcDbEntity
8
CUTOUTS
100
AcDbCircle
10
43.312499999999986
20
-34.064925052305114
30
0
40
0.49999999999997158
210
0
220
0
230
1
100
AcDbArc
50
180
51
270
0
LINE
5
299
100
AcDbEntity
8
CUTOUTS
100
AcDbLine
10
56.3125
20
-34.564925052305114
30
0
11
43.312499999999986
21
-34.564925052305085
31
0
0
ARC
5
29A
100
AcDbEntity
8
CUTOUTS
100
AcDbCircle
10
56.3125
20
-34.064925052305114
30
0
40
0.49999999999999822
210
-0
220
0
230
1
100
AcDbArc
50
-90
51
0
0
LINE
5
29B
100
AcDbEntity
8
CUTOUTS
100
AcDbLine
10
56.8125
20
-21.064925052305128
30
0
11
56.812499999999993
21
-34.064925052305114
31
0
0
ARC
5
29C
100
AcDbEntity
8
CUTOUTS
100
AcDbCircle
10
56.3125
20
-21.064925052305128
30
0
40
0.50000000000000711
210
0
220
-0
230
1
100
AcDbArc
50
0
51
90
0
LINE
5
29D
100
AcDbEntity
8
CUTOUTS
100
AcDbLine
10
43.312499999999986
20
-20.564925052305124
30
0
11
56.3125
21
-20.564925052305121
31
0
0
ARC
5
29E
100
AcDbEntity
8
CUTOUTS
100
AcDbCircle
10
129.03750000000002
20
-34.064925052305114
30
0
40
0.50000000000000711
210
0
220
0
230
1
100
AcDbArc
50
180
51
270
0
LINE
5
29F
100
AcDbEntity
8
CUTOUTS
100
AcDbLine
10
142.03749999999999
20
-34.564925052305114
30
0
11
129.03750000000002
21
-34.564925052305128
31
0
0
ARC
5
2A0
100
AcDbEntity
8
CUTOUTS
100
AcDbCircle
10
142.03749999999999
20
-34.064925052305114
30
0
40
0.49999999999999822
210
-0
220
0
230
1
100
AcDbArc
50
-90
51
0
0
LINE
5
2A1
100
AcDbEntity
8
CUTOUTS
100
AcDbLine
10
142.53749999999999
20
-21.064925052305128
30
0
11
142.53749999999999
21
-34.064925052305114
31
0
0
ARC
5
2A2
100
AcDbEntity
8
CUTOUTS
100
AcDbCircle
10
142.03749999999999
20
-21.064925052305128
30
0
40
0.50000000000000711
210
0
220
-0
230
1
100
AcDbArc
50
0
51
90
0
LINE
5
2A3
100
AcDbEntity
8
CUTOUTS
100
AcDbLine
10
129.03750000000002
20
-20.564925052305124
30
0
11
142.03749999999999
21
-20.564925052305121
31
0
0
ARC
5
2A4
100
AcDbEntity
8
CUTOUTS
100
AcDbCircle
10
129.03750000000002
20
-21.064925052305128
30
0
40
0.50000000000000266
210
0
220
-0
230
1
100
AcDbArc
50
90
51
180
0
LINE
5
2A5
100
AcDbEntity
8
CUTOUTS
100
AcDbLine
10
128.53750000000002
20
-34.064925052305114
30
0
11
128.53750000000002
21
-21.064925052305128
31
0
0
ARC
5
2A6
100
AcDbEntity
8
CUTOUTS
100
AcDbCircle
10
148.08749999999998
20
-34.064925052305114
30
0
40
0.50000000000000711
210
0
220
0
230
1
100
AcDbArc
50
180
51
270
0
LINE
5
2A7
100
AcDbEntity
8
CUTOUTS
100
AcDbLine
10
161.08749999999992
20
-34.564925052305114
30
0
11
148.08749999999998
21
-34.564925052305128
31
0
0
ARC
5
2A8
100
AcDbEntity
8
CUTOUTS
100
AcDbCircle
10
161.08749999999992
20
-34.064925052305114
30
0
40
0.49999999999999822
210
-0
220
0
230
1
100
AcDbArc
50
-90
51
0
0
LINE
5
2A9
100
AcDbEntity
8
CUTOUTS
100
AcDbLine
10
161.58749999999998
20
-21.064925052305128
30
0
11
161.58749999999995
21
-34.064925052305114
31
0
0
ARC
5
2AA
100
AcDbEntity
8
CUTOUTS
100
AcDbCircle
10
161.08749999999992
20
-21.064925052305128
30
0
40
0.50000000000004263
210
0
220
-0
230
1
100
AcDbArc
50
0
51
90
0
LINE
5
2AB
100
AcDbEntity
8
CUTOUTS
100
AcDbLine
10
148.08749999999998
20
-20.564925052305124
30
0
11
161.08749999999992
21
-20.564925052305085
31
0
0
ARC
5
2AC
100
AcDbEntity
8
CUTOUTS
100
AcDbCircle
10
148.08749999999998
20
-21.064925052305128
30
0
40
0.50000000000000266
210
0
220
-0
230
1
100
AcDbArc
50
90
51
180
0
LINE
5
2AD
100
AcDbEntity
8
CUTOUTS
100
AcDbLine
10
147.58749999999995
20
-34.064925052305114
30
0
11
147.58749999999995
21
-21.064925052305128
31
0
0
ARC
5
2AE
100
AcDbEntity
8
CUTOUTS
100
AcDbCircle
10
-86.562500000000028
20
-38.827425052305131
30
0
40
0.49999999999999822
210
-0
220
0
230
1
100
AcDbArc
50
-90
51
0
0
LINE
5
2AF
100
AcDbEntity
8
CUTOUTS
100
AcDbLine
10
-86.062500000000043
20
-25.827425052305134
30
0
11
-86.062500000000028
21
-38.827425052305131
31
0
0
ARC
5
2B0
100
AcDbEntity
8
CUTOUTS
100
AcDbCircle
10
-86.562500000000028
20
-25.827425052305134
30
0
40
0.49999999999998934
210
0
220
-0
230
1
100
AcDbArc
50
0
51
90
0
LINE
5
2B1
100
AcDbEntity
8
CUTOUTS
100
AcDbLine
10
-89.556250000000034
20
-25.327425052305141
30
0
11
-86.562500000000028
21
-25.327425052305145
31
0
0
LINE
5
2B2
100
AcDbEntity
8
CUTOUTS
100
AcDbLine
10
-89.556250000000034
20
-23.827425052305124
30
0
11
-89.556250000000034
21
-25.327425052305141
31
0
0
ARC
5
2B3
100
AcDbEntity
8
CUTOUTS
100
AcDbCircle
10
-90.05625000000002
20
-23.827425052305124
30
0
40
0.49999999999998934
210
0
220
-0
230
1
100
AcDbArc
50
0
51
90
0
LINE
5
2B4
100
AcDbEntity
8
CUTOUTS
100
AcDbLine
10
-96.056250000000034
20
-23.327425052305127
30
0
11
-90.05625000000002
21
-23.327425052305134
31
0
0
ARC
5
2B5
100
AcDbEntity
8
CUTOUTS
100
AcDbCircle
10
-96.056250000000034
20
-23.827425052305124
30
0
40
0.49999999999999822
210
0
220
-0
230
1
100
AcDbArc
50
90
51
180
0
LINE
5
2B6
100
AcDbEntity
8
CUTOUTS
100
AcDbLine
10
-96.556250000000034
20
-25.327425052305141
30
0
11
-96.556250000000034
21
-23.827425052305124
31
0
0
LINE
5
2B7
100
AcDbEntity
8
CUTOUTS
100
AcDbLine
10
-99.562500000000028
20
-25.327425052305138
30
0
11
-96.556250000000034
21
-25.327425052305141
31
0
0
ARC
5
2B8
100
AcDbEntity
8
CUTOUTS
100
AcDbCircle
10
-99.562500000000028
20
-25.827425052305134
30
0
40
0.49999999999999822
210
0
220
-0
230
1
100
AcDbArc
50
90
51
180
0
LINE
5
2B9
100
AcDbEntity
8
CUTOUTS
100
AcDbLine
10
-100.06250000000001
20
-38.827425052305131
30
0
11
-100.06250000000001
21
-25.827425052305134
31
0
0
ARC
5
2BA
100
AcDbEntity
8
CUTOUTS
100
AcDbCircle
10
-99.562500000000028
20
-38.827425052305131
30
0
40
0.49999999999998934
210
0
220
0
230
1
100
AcDbArc
50
180
51
270
0
LINE
5
2BB
100
AcDbEntity
8
CUTOUTS
100
AcDbLine
10
-86.562500000000028
20
-39.327425052305131
30
0
11
-99.562500000000028
21
-39.327425052305117
31
0
0
ARC
5
2BC
100
AcDbEntity
8
CUTOUTS
100
AcDbCircle
10
-57.987499999999997
20
-38.827425052305131
30
0
40
0.49999999999999822
210
-0
220
0
230
1
100
AcDbArc
50
-90
51
0
0
LINE
5
2BD
100
AcDbEntity
8
CUTOUTS
100
AcDbLine
10
-57.487499999999997
20
-25.827425052305134
30
0
11
-57.487500000000004
21
-38.827425052305131
31
0
0
ARC
5
2BE
100
AcDbEntity
8
CUTOUTS
100
AcDbCircle
10
-57.987499999999997
20
-25.827425052305134
30
0
40
0.50000000000000711
210
0
220
-0
230
1
100
AcDbArc
50
0
51
90
0
LINE
5
2BF
100
AcDbEntity
8
CUTOUTS
100
AcDbLine
10
-70.987500000000011
20
-25.327425052305141
30
0
11
-57.987499999999997
21
-25.327425052305127
31
0
0
ARC
5
2C0
100
AcDbEntity
8
CUTOUTS
100
AcDbCircle
10
-70.987500000000011
20
-25.827425052305134
30
0
40
0.49999999999999378
210
0
220
-0
230
1
100
AcDbArc
50
90
51
180
0
LINE
5
2C1
100
AcDbEntity
8
CUTOUTS
100
AcDbLine
10
-71.487499999999997
20
-38.827425052305131
30
0
11
-71.487499999999997
21
-25.827425052305134
31
0
0
ARC
5
2C2
100
AcDbEntity
8
CUTOUTS
100
AcDbCircle
10
-70.987500000000011
20
-38.827425052305131
30
0
40
0.49999999999998934
210
0
220
0
230
1
100
AcDbArc
50
180
51
270
0
LINE
5
2C3
100
AcDbEntity
8
CUTOUTS
100
AcDbLine
10
-57.987499999999997
20
-39.327425052305131
30
0
11
-70.987500000000011
21
-39.327425052305117
31
0
0
LINE
5
2C4
100
AcDbEntity
8
CUTOUTS
100
AcDbLine
10
-72.9255
20
-23.827425052305124
30
0
11
-72.9255
21
-37.827425052305124
31
0
0
ARC
5
2C5
100
AcDbEntity
8
CUTOUTS
100
AcDbCircle
10
-73.425500000000014
20
-37.827425052305124
30
0
40
0.50000000000001155
210
-0
220
0
230
1
100
AcDbArc
50
-90
51
0
0
LINE
5
2C6
100
AcDbEntity
8
CUTOUTS
100
AcDbLine
10
-73.425500000000014
20
-38.327425052305138
30
0
11
-79.4255
21
-38.327425052305131
31
0
0
ARC
5
2C7
100
AcDbEntity
8
CUTOUTS
100
AcDbCircle
10
-79.4255
20
-37.827425052305124
30
0
40
0.50000000000000711
210
0
220
0
230
1
100
AcDbArc
50
180
51
270
0
LINE
5
2C8
100
AcDbEntity
8
CUTOUTS
100
AcDbLine
10
-79.925500000000014
20
-37.827425052305124
30
0
11
-79.9255
21
-23.827425052305124
31
0
0
ARC
5
2C9
100
AcDbEntity
8
CUTOUTS
100
AcDbCircle
10
-79.4255
20
-23.827425052305124
30
0
40
0.49999999999999822
210
0
220
-0
230
1
100
AcDbArc
50
90
51
180
0
LINE
5
2CA
100
AcDbEntity
8
CUTOUTS
100
AcDbLine
10
-79.4255
20
-23.327425052305127
30
0
11
-73.425500000000014
21
-23.327425052305117
31
0
0
ARC
5
2CB
100
AcDbEntity
8
CUTOUTS
100
AcDbCircle
10
-73.425500000000014
20
-23.827425052305124
30
0
40
0.50000000000000711
210
0
220
-0
230
1
100
AcDbArc
50
0
51
90
0
ARC
5
2CC
100
AcDbEntity
8
CUTOUTS
100
AcDbCircle
10
-17.506249999999998
20
-38.827425052305131
30
0
40
0.49999999999999822
210
-0
220
0
230
1
100
AcDbArc
50
-90
51
0
0
LINE
5
2CD
100
AcDbEntity
8
CUTOUTS
100
AcDbLine
10
-17.006250000000009
20
-25.827425052305134
30
0
11
-17.006250000000001
21
-38.827425052305131
31
0
0
ARC
5
2CE
100
AcDbEntity
8
CUTOUTS
100
AcDbCircle
10
-17.506249999999998
20
-25.827425052305134
30
0
40
0.49999999999998934
210
0
220
-0
230
1
100
AcDbArc
50
0
51
90
0
LINE
5
2CF
100
AcDbEntity
8
CUTOUTS
100
AcDbLine
10
-30.506250000000001
20
-25.327425052305141
30
0
11
-17.506249999999998
21
-25.327425052305145
31
0
0
ARC
5
2D0
100
AcDbEntity
8
CUTOUTS
100
AcDbCircle
10
-30.506250000000001
20
-25.827425052305134
30
0
40
0.49999999999999378
210
0
220
-0
230
1
100
AcDbArc
50
90
51
180
0
LINE
5
2D1
100
AcDbEntity
8
CUTOUTS
100
AcDbLine
10
-31.006249999999991
20
-38.827425052305131
30
0
11
-31.006249999999994
21
-25.827425052305134
31
0
0
ARC
5
2D2
100
AcDbEntity
8
CUTOUTS
100
AcDbCircle
10
-30.506250000000001
20
-38.827425052305131
30
0
40
0.49999999999998934
210
0
220
0
230
1
100
AcDbArc
50
180
51
270
0
LINE
5
2D3
100
AcDbEntity
8
CUTOUTS
100
AcDbLine
10
-17.506249999999998
20
-39.327425052305131
30
0
11
-30.506250000000001
21
-39.327425052305117
31
0
0
LINE
5
2D4
100
AcDbEntity
8
CUTOUTS
100
AcDbLine
10
-9.0682500000000168
20
-38.327425052305138
30
0
11
-15.068250000000013
21
-38.327425052305131
31
0
0
ARC
5
2D5
100
AcDbEntity
8
CUTOUTS
100
AcDbCircle
10
-15.068250000000013
20
-37.827425052305124
30
0
40
0.50000000000000711
210
0
220
0
230
1
100
AcDbArc
50
180
51
270
0
LINE
5
2D6
100
AcDbEntity
8
CUTOUTS
100
AcDbLine
10
-15.56825000000002
20
-37.827425052305124
30
0
11
-15.568250000000013
21
-23.827425052305124
31
0
0
ARC
5
2D7
100
AcDbEntity
8
CUTOUTS
100
AcDbCircle
10
-15.068250000000013
20
-23.827425052305124
30
0
40
0.49999999999999822
210
0
220
-0
230
1
100
AcDbArc
50
90
51
180
0
LINE
5
2D8
100
AcDbEntity
8
CUTOUTS
100
AcDbLine
10
-15.068250000000013
20
-23.327425052305127
30
0
11
-9.0682500000000168
21
-23.327425052305117
31
0
0
ARC
5
2D9
100
AcDbEntity
8
CUTOUTS
100
AcDbCircle
10
-9.0682500000000168
20
-23.827425052305124
30
0
40
0.50000000000000711
210
0
220
-0
230
1
100
AcDbArc
50
0
51
90
0
LINE
5
2DA
100
AcDbEntity
8
CUTOUTS
100
AcDbLine
10
-8.5682500000000097
20
-23.827425052305124
30
0
11
-8.5682500000000061
21
-37.827425052305124
31
0
0
ARC
5
2DB
100
AcDbEntity
8
CUTOUTS
100
AcDbCircle
10
-9.0682500000000168
20
-37.827425052305124
30
0
40
0.50000000000001155
210
-0
220
0
230
1
100
AcDbArc
50
-90
51
0
0
LINE
5
2DC
100
AcDbEntity
8
CUTOUTS
100
AcDbLine
10
-55.549499999999995
20
-23.327425052305127
30
0
11
-49.549500000000002
21
-23.327425052305117
31
0
0
ARC
5
2DD
100
AcDbEntity
8
CUTOUTS
100
AcDbCircle
10
-49.549500000000002
20
-23.827425052305124
30
0
40
0.50000000000000711
210
0
220
-0
230
1
100
AcDbArc
50
0
51
90
0
LINE
5
2DE
100
AcDbEntity
8
CUTOUTS
100
AcDbLine
10
-49.049499999999995
20
-23.827425052305124
30
0
11
-49.049499999999995
21
-25.327425052305141
31
0
0
LINE
5
2DF
100
AcDbEntity
8
CUTOUTS
100
AcDbLine
10
-49.049499999999995
20
-25.327425052305141
30
0
11
-39.444250000000011
21
-25.327425052305141
31
0
0
LINE
5
2E0
100
AcDbEntity
8
CUTOUTS
100
AcDbLine
10
-39.444250000000011
20
-25.327425052305141
30
0
11
-39.444249999999997
21
-23.827425052305124
31
0
0
ARC
5
2E1
100
AcDbEntity
8
CUTOUTS
100
AcDbCircle
10
-38.944249999999997
20
-23.827425052305124
30
0
40
0.49999999999999822
210
0
220
-0
230
1
100
AcDbArc
50
90
51
180
0
LINE
5
2E2
100
AcDbEntity
8
CUTOUTS
100
AcDbLine
10
-38.944249999999997
20
-23.327425052305127
30
0
11
-32.944250000000025
21
-23.327425052305117
31
0
0
ARC
5
2E3
100
AcDbEntity
8
CUTOUTS
100
AcDbCircle
10
-32.944250000000025
20
-23.827425052305124
30
0
40
0.50000000000000711
210
0
220
-0
230
1
100
AcDbArc
50
0
51
90
0
LINE
5
2E4
100
AcDbEntity
8
CUTOUTS
100
AcDbLine
10
-32.444250000000011
20
-23.827425052305124
30
0
11
-32.444250000000025
21
-37.827425052305124
31
0
0
ARC
5
2E5
100
AcDbEntity
8
CUTOUTS
100
AcDbCircle
10
-32.944250000000025
20
-37.827425052305124
30
0
40
0.49999999999999822
210
-0
220
0
230
1
100
AcDbArc
50
-90
51
0
0
LINE
5
2E6
100
AcDbEntity
8
CUTOUTS
100
AcDbLine
10
-32.944250000000025
20
-38.327425052305124
30
0
11
-36.05625000000002
21
-38.327425052305138
31
0
0
LINE
5
2E7
100
AcDbEntity
8
CUTOUTS
100
AcDbLine
10
-36.05625000000002
20
-38.327425052305138
30
0
11
-36.056250000000006
21
-38.827425052305131
31
0
0
ARC
5
2E8
100
AcDbEntity
8
CUTOUTS
100
AcDbCircle
10
-36.556250000000006
20
-38.827425052305131
30
0
40
0.49999999999999822
210
-0
220
0
230
1
100
AcDbArc
50
-90
51
0
0
LINE
5
2E9
100
AcDbEntity
8
CUTOUTS
100
AcDbLine
10
-36.556250000000006
20
-39.327425052305131
30
0
11
-49.556250000000013
21
-39.327425052305117
31
0
0
ARC
5
2EA
100
AcDbEntity
8
CUTOUTS
100
AcDbCircle
10
-49.556250000000013
20
-38.827425052305131
30
0
40
0.49999999999998934
210
0
220
0
230
1
100
AcDbArc
50
180
51
270
0
LINE
5
2EB
100
AcDbEntity
8
CUTOUTS
100
AcDbLine
10
-50.056250000000006
20
-38.827425052305131
30
0
11
-50.056250000000006
21
-38.327425052305138
31
0
0
LINE
5
2EC
100
AcDbEntity
8
CUTOUTS
100
AcDbLine
10
-50.056250000000006
20
-38.327425052305138
30
0
11
-55.549499999999995
21
-38.327425052305131
31
0
0
ARC
5
2ED
100
AcDbEntity
8
CUTOUTS
100
AcDbCircle
10
-55.549499999999995
20
-37.827425052305124
30
0
40
0.50000000000000711
210
0
220
0
230
1
100
AcDbArc
50
180
51
270
0
LINE
5
2EE
100
AcDbEntity
8
CUTOUTS
100
AcDbLine
10
-56.049500000000009
20
-37.827425052305124
30
0
11
-56.049499999999995
21
-23.827425052305124
31
0
0
ARC
5
2EF
100
AcDbEntity
8
CUTOUTS
100
AcDbCircle
10
-55.549499999999995
20
-23.827425052305124
30
0
40
0.49999999999999822
210
0
220
-0
230
1
100
AcDbArc
50
90
51
180
0
ARC
5
2F0
100
AcDbEntity
8
CUTOUTS
100
AcDbCircle
10
0.44999999999999574
20
-38.827425052305131
30
0
40
0.50000000000000699
210
0
220
0
230
1
100
AcDbArc
50
180
51
269.99999999999989
0
LINE
5
2F1
100
AcDbEntity
8
CUTOUTS
100
AcDbLine
10
13.449999999999967
20
-39.327425052305131
30
0
11
0.44999999999999485
21
-39.327425052305131
31
0
0
ARC
5
2F2
100
AcDbEntity
8
CUTOUTS
100
AcDbCircle
10
13.449999999999967
20
-38.827425052305131
30
0
40
0.49999999999999822
210
-0
220
0
230
1
100
AcDbArc
50
-90
51
0
0
LINE
5
2F3
100
AcDbEntity
8
CUTOUTS
100
AcDbLine
10
13.949999999999974
20
-25.827425052305134
30
0
11
13.949999999999974
21
-38.827425052305131
31
0
0
ARC
5
2F4
100
AcDbEntity
8
CUTOUTS
100
AcDbCircle
10
13.449999999999967
20
-25.827425052305134
30
0
40
0.50000000000000711
210
0
220
-0
230
1
100
AcDbArc
50
0
51
90
0
LINE
5
2F5
100
AcDbEntity
8
CUTOUTS
100
AcDbLine
10
10.443750000000001
20
-25.327425052305141
30
0
11
13.449999999999967
21
-25.327425052305141
31
0
0
LINE
5
2F6
100
AcDbEntity
8
CUTOUTS
100
AcDbLine
10
10.443750000000001
20
-23.827425052305124
30
0
11
10.443750000000001
21
-25.327425052305141
31
0
0
ARC
5
2F7
100
AcDbEntity
8
CUTOUTS
100
AcDbCircle
10
9.9437499999999943
20
-23.827425052305124
30
0
40
0.50000000000000711
210
0
220
-0
230
1
100
AcDbArc
50
0
51
90
0
LINE
5
2F8
100
AcDbEntity
8
CUTOUTS
100
AcDbLine
10
3.9437499999999801
20
-23.327425052305127
30
0
11
9.9437499999999943
21
-23.327425052305127
31
0
0
ARC
5
2F9
100
AcDbEntity
8
CUTOUTS
100
AcDbCircle
10
3.9437499999999801
20
-23.827425052305124
30
0
40
0.49999999999999822
210
0
220
-0
230
1
100
AcDbArc
50
90
51
180
0
LINE
5
2FA
100
AcDbEntity
8
CUTOUTS
100
AcDbLine
10
3.443749999999973
20
-25.327425052305141
30
0
11
3.443749999999973
21
-23.827425052305124
31
0
0
LINE
5
2FB
100
AcDbEntity
8
CUTOUTS
100
AcDbLine
10
0.44999999999999574
20
-25.327425052305141
30
0
11
3.443749999999973
21
-25.327425052305141
31
0
0
ARC
5
2FC
100
AcDbEntity
8
CUTOUTS
100
AcDbCircle
10
0.44999999999999574
20
-25.827425052305134
30
0
40
0.49999999999999378
210
0
220
-0
230
1
100
AcDbArc
50
89.999999999999986
51
180
0
LINE
5
2FD
100
AcDbEntity
8
CUTOUTS
100
AcDbLine
10
-0.050000000000011285
20
-38.827425052305131
30
0
11
-0.050000000000011355
21
-25.827425052305134
31
0
0
ARC
5
2FE
100
AcDbEntity
8
CUTOUTS
100
AcDbCircle
10
80.125
20
-25.827425052305134
30
0
40
0.50000000000000711
210
0
220
-0
230
1
100
AcDbArc
50
0
51
90
0
LINE
5
2FF
100
AcDbEntity
8
CUTOUTS
100
AcDbLine
10
67.125
20
-25.327425052305141
30
0
11
80.125
21
-25.327425052305127
31
0
0
ARC
5
300
100
AcDbEntity
8
CUTOUTS
100
AcDbCircle
10
67.125
20
-25.827425052305134
30
0
40
0.49999999999999378
210
0
220
-0
230
1
100
AcDbArc
50
90
51
180
0
LINE
5
301
100
AcDbEntity
8
CUTOUTS
100
AcDbLine
10
66.625
20
-38.827425052305131
30
0
11
66.625000000000014
21
-25.827425052305134
31
0
0
ARC
5
302
100
AcDbEntity
8
CUTOUTS
100
AcDbCircle
10
67.125
20
-38.827425052305131
30
0
40
0.50000000000000711
210
0
220
0
230
1
100
AcDbArc
50
180
51
270
0
LINE
5
303
100
AcDbEntity
8
CUTOUTS
100
AcDbLine
10
80.125
20
-39.327425052305131
30
0
11
67.125
21
-39.327425052305138
31
0
0
ARC
5
304
100
AcDbEntity
8
CUTOUTS
100
AcDbCircle
10
80.125
20
-38.827425052305131
30
0
40
0.49999999999999822
210
-0
220
0
230
1
100
AcDbArc
50
-90
51
0
0
LINE
5
305
100
AcDbEntity
8
CUTOUTS
100
AcDbLine
10
80.625
20
-25.827425052305134
30
0
11
80.625
21
-38.827425052305131
31
0
0
ARC
5
306
100
AcDbEntity
8
CUTOUTS
100
AcDbCircle
10
86.174999999999997
20
-38.827425052305131
30
0
40
0.50000000000000711
210
0
220
0
230
1
100
AcDbArc
50
180
51
270
0
LINE
5
307
100
AcDbEntity
8
CUTOUTS
100
AcDbLine
10
99.175000000000011
20
-39.327425052305131
30
0
11
86.174999999999997
21
-39.327425052305138
31
0
0
ARC
5
308
100
AcDbEntity
8
CUTOUTS
100
AcDbCircle
10
99.175000000000011
20
-38.827425052305131
30
0
40
0.49999999999999822
210
-0
220
0
230
1
100
AcDbArc
50
-90
51
0
0
LINE
5
309
100
AcDbEntity
8
CUTOUTS
100
AcDbLine
10
99.675000000000011
20
-25.827425052305134
30
0
11
99.675000000000011
21
-38.827425052305131
31
0
0
ARC
5
30A
100
AcDbEntity
8
CUTOUTS
100
AcDbCircle
10
99.175000000000011
20
-25.827425052305134
30
0
40
0.50000000000000711
210
0
220
-0
230
1
100
AcDbArc
50
0
51
90
0
LINE
5
30B
100
AcDbEntity
8
CUTOUTS
100
AcDbLine
10
86.174999999999997
20
-25.327425052305141
30
0
11
99.175000000000011
21
-25.327425052305127
31
0
0
ARC
5
30C
100
AcDbEntity
8
CUTOUTS
100
AcDbCircle
10
86.174999999999997
20
-25.827425052305134
30
0
40
0.49999999999999378
210
0
220
-0
230
1
100
AcDbArc
50
90
51
180
0
LINE
5
30D
100
AcDbEntity
8
CUTOUTS
100
AcDbLine
10
85.674999999999983
20
-38.827425052305131
30
0
11
85.675000000000011
21
-25.827425052305134
31
0
0
ARC
5
30E
100
AcDbEntity
8
CUTOUTS
100
AcDbCircle
10
105.22500000000001
20
-25.827425052305134
30
0
40
0.49999999999999378
210
0
220
-0
230
1
100
AcDbArc
50
90
51
180
0
LINE
5
30F
100
AcDbEntity
8
CUTOUTS
100
AcDbLine
10
104.72499999999999
20
-38.827425052305131
30
0
11
104.72500000000002
21
-25.827425052305134
31
0
0
ARC
5
310
100
AcDbEntity
8
CUTOUTS
100
AcDbCircle
10
105.22500000000001
20
-38.827425052305131
30
0
40
0.50000000000000711
210
0
220
0
230
1
100
AcDbArc
50
180
51
270
0
LINE
5
311
100
AcDbEntity
8
CUTOUTS
100
AcDbLine
10
118.22500000000002
20
-39.327425052305131
30
0
11
105.22500000000001
21
-39.327425052305138
31
0
0
ARC
5
312
100
AcDbEntity
8
CUTOUTS
100
AcDbCircle
10
118.22500000000002
20
-38.827425052305131
30
0
40
0.49999999999999822
210
-0
220
0
230
1
100
AcDbArc
50
-90
51
0
0
LINE
5
313
100
AcDbEntity
8
CUTOUTS
100
AcDbLine
10
118.72500000000002
20
-25.827425052305134
30
0
11
118.72500000000002
21
-38.827425052305131
31
0
0
ARC
5
314
100
AcDbEntity
8
CUTOUTS
100
AcDbCircle
10
118.22500000000002
20
-25.827425052305134
30
0
40
0.50000000000000711
210
0
220
-0
230
1
100
AcDbArc
50
0
51
90
0
LINE
5
315
100
AcDbEntity
8
CUTOUTS
100
AcDbLine
10
105.22500000000001
20
-25.327425052305141
30
0
11
118.22500000000002
21
-25.327425052305127
31
0
0
LINE
5
316
100
AcDbEntity
8
PERIMETER
100
AcDbLine
10
-164.50000000000003
20
38.110074947694919
30
0
11
-164.50000000000003
21
-40.852425052305186
31
0
0
ARC
5
317
100
AcDbEntity
8
PERIMETER
100
AcDbCircle
10
-163.50000000000009
20
-40.852425052305186
30
0
40
0.99999999999994316
210
0
220
0
230
1
100
AcDbArc
50
180
51
270
0
LINE
5
318
100
AcDbEntity
8
PERIMETER
100
AcDbLine
10
-163.50000000000009
20
-41.852425052305129
30
0
11
163.11250000000007
21
-41.852425052305151
31
0
0
ARC
5
319
100
AcDbEntity
8
PERIMETER
100
AcDbCircle
10
163.11250000000007
20
-40.852425052305193
30
0
40
0.99999999999995204
210
-0
220
0
230
1
100
AcDbArc
50
-90
51
0
0
LINE
5
31A
100
AcDbEntity
8
PERIMETER
100
AcDbLine
10
164.11250000000001
20
-40.852425052305193
30
0
11
164.11250000000001
21
38.110074947694926
31
0
0
ARC
5
31B
100
AcDbEntity
8
PERIMETER
100
AcDbCircle
10
163.11250000000007
20
38.110074947694926
30
0
40
0.99999999999994316
210
0
220
-0
230
1
100
AcDbArc
50
0
51
90
0
LINE
5
31C
100
AcDbEntity
8
PERIMETER
100
AcDbLine
10
163.11250000000007
20
39.110074947694869
30
0
11
-163.50000000000009
21
39.110074947694869
31
0
0
ARC
5
31D
100
AcDbEntity
8
PERIMETER
100
AcDbCircle
10
-163.50000000000009
20
38.110074947694926
30
0
40
0.99999999999994316
210
0
220
-0
230
1
100
AcDbArc
50
90
51
180
0
ENDSEC
0
SECTION
2
OBJECTS
0
DICTIONARY
5
C
100
AcDbDictionary
3
ACAD_GROUP
350
D
3
ACAD_MLINESTYLE
350
17
0
DICTIONARY
5
D
100
AcDbDictionary
0
DICTIONARY
5
1A
330
C
100
AcDbDictionary
0
DICTIONARY
5
17
100
AcDbDictionary
0
ENDSEC
0
EOF
